<?xml version="1.0" encoding="UTF-8" ?>
<svg version="1.1" width="258" height="66" xmlns="http://www.w3.org/2000/svg" shape-rendering="crispEdges">
<rect x="0" y="0" width="6" height="6" fill="#000000" />
<rect x="6" y="0" width="6" height="6" fill="#000000" />
<rect x="12" y="0" width="6" height="6" fill="#000000" />
<rect x="18" y="0" width="6" height="6" fill="#000000" />
<rect x="24" y="0" width="6" height="6" fill="#000000" />
<rect x="30" y="0" width="6" height="6" fill="#000000" />
<rect x="36" y="0" width="6" height="6" fill="#000000" />
<rect x="42" y="0" width="6" height="6" fill="#000000" />
<rect x="48" y="0" width="6" height="6" fill="#FFFFFF" />
<rect x="54" y="0" width="6" height="6" fill="#FFFFFF" />
<rect x="60" y="0" width="6" height="6" fill="#FFFFFF" />
<rect x="66" y="0" width="6" height="6" fill="#FFFFFF" />
<rect x="72" y="0" width="6" height="6" fill="#000000" />
<rect x="78" y="0" width="6" height="6" fill="#FFFFFF" />
<rect x="84" y="0" width="6" height="6" fill="#FFFFFF" />
<rect x="90" y="0" width="6" height="6" fill="#FFFFFF" />
<rect x="96" y="0" width="6" height="6" fill="#FFFFFF" />
<rect x="102" y="0" width="6" height="6" fill="#000000" />
<rect x="108" y="0" width="6" height="6" fill="#000000" />
<rect x="114" y="0" width="6" height="6" fill="#000000" />
<rect x="120" y="0" width="6" height="6" fill="#FFFFFF" />
<rect x="126" y="0" width="6" height="6" fill="#FFFFFF" />
<rect x="132" y="0" width="6" height="6" fill="#FFFFFF" />
<rect x="138" y="0" width="6" height="6" fill="#000000" />
<rect x="144" y="0" width="6" height="6" fill="#000000" />
<rect x="150" y="0" width="6" height="6" fill="#000000" />
<rect x="156" y="0" width="6" height="6" fill="#FFFFFF" />
<rect x="162" y="0" width="6" height="6" fill="#FFFFFF" />
<rect x="168" y="0" width="6" height="6" fill="#FFFFFF" />
<rect x="174" y="0" width="6" height="6" fill="#000000" />
<rect x="180" y="0" width="6" height="6" fill="#FFFFFF" />
<rect x="186" y="0" width="6" height="6" fill="#FFFFFF" />
<rect x="192" y="0" width="6" height="6" fill="#FFFFFF" />
<rect x="198" y="0" width="6" height="6" fill="#FFFFFF" />
<rect x="204" y="0" width="6" height="6" fill="#FFFFFF" />
<rect x="210" y="0" width="6" height="6" fill="#000000" />
<rect x="216" y="0" width="6" height="6" fill="#000000" />
<rect x="222" y="0" width="6" height="6" fill="#000000" />
<rect x="228" y="0" width="6" height="6" fill="#000000" />
<rect x="234" y="0" width="6" height="6" fill="#000000" />
<rect x="240" y="0" width="6" height="6" fill="#000000" />
<rect x="246" y="0" width="6" height="6" fill="#000000" />
<rect x="252" y="0" width="6" height="6" fill="#000000" />
<rect x="0" y="6" width="6" height="6" fill="#000000" />
<rect x="6" y="6" width="6" height="6" fill="#000000" />
<rect x="12" y="6" width="6" height="6" fill="#000000" />
<rect x="18" y="6" width="6" height="6" fill="#000000" />
<rect x="24" y="6" width="6" height="6" fill="#000000" />
<rect x="30" y="6" width="6" height="6" fill="#000000" />
<rect x="36" y="6" width="6" height="6" fill="#000000" />
<rect x="42" y="6" width="6" height="6" fill="#FFFFFF" />
<rect x="48" y="6" width="6" height="6" fill="#000000" />
<rect x="54" y="6" width="6" height="6" fill="#000000" />
<rect x="60" y="6" width="6" height="6" fill="#000000" />
<rect x="66" y="6" width="6" height="6" fill="#000000" />
<rect x="72" y="6" width="6" height="6" fill="#000000" />
<rect x="78" y="6" width="6" height="6" fill="#FFFFFF" />
<rect x="84" y="6" width="6" height="6" fill="#000000" />
<rect x="90" y="6" width="6" height="6" fill="#000000" />
<rect x="96" y="6" width="6" height="6" fill="#000000" />
<rect x="102" y="6" width="6" height="6" fill="#FFFFFF" />
<rect x="108" y="6" width="6" height="6" fill="#000000" />
<rect x="114" y="6" width="6" height="6" fill="#FFFFFF" />
<rect x="120" y="6" width="6" height="6" fill="#000000" />
<rect x="126" y="6" width="6" height="6" fill="#000000" />
<rect x="132" y="6" width="6" height="6" fill="#000000" />
<rect x="138" y="6" width="6" height="6" fill="#FFFFFF" />
<rect x="144" y="6" width="6" height="6" fill="#000000" />
<rect x="150" y="6" width="6" height="6" fill="#FFFFFF" />
<rect x="156" y="6" width="6" height="6" fill="#000000" />
<rect x="162" y="6" width="6" height="6" fill="#000000" />
<rect x="168" y="6" width="6" height="6" fill="#000000" />
<rect x="174" y="6" width="6" height="6" fill="#000000" />
<rect x="180" y="6" width="6" height="6" fill="#FFFFFF" />
<rect x="186" y="6" width="6" height="6" fill="#000000" />
<rect x="192" y="6" width="6" height="6" fill="#000000" />
<rect x="198" y="6" width="6" height="6" fill="#000000" />
<rect x="204" y="6" width="6" height="6" fill="#000000" />
<rect x="210" y="6" width="6" height="6" fill="#000000" />
<rect x="216" y="6" width="6" height="6" fill="#000000" />
<rect x="222" y="6" width="6" height="6" fill="#000000" />
<rect x="228" y="6" width="6" height="6" fill="#000000" />
<rect x="234" y="6" width="6" height="6" fill="#000000" />
<rect x="240" y="6" width="6" height="6" fill="#000000" />
<rect x="246" y="6" width="6" height="6" fill="#000000" />
<rect x="252" y="6" width="6" height="6" fill="#000000" />
<rect x="0" y="12" width="6" height="6" fill="#000000" />
<rect x="6" y="12" width="6" height="6" fill="#000000" />
<rect x="12" y="12" width="6" height="6" fill="#000000" />
<rect x="18" y="12" width="6" height="6" fill="#000000" />
<rect x="24" y="12" width="6" height="6" fill="#000000" />
<rect x="30" y="12" width="6" height="6" fill="#000000" />
<rect x="36" y="12" width="6" height="6" fill="#000000" />
<rect x="42" y="12" width="6" height="6" fill="#000000" />
<rect x="48" y="12" width="6" height="6" fill="#FFFFFF" />
<rect x="54" y="12" width="6" height="6" fill="#FFFFFF" />
<rect x="60" y="12" width="6" height="6" fill="#FFFFFF" />
<rect x="66" y="12" width="6" height="6" fill="#000000" />
<rect x="72" y="12" width="6" height="6" fill="#000000" />
<rect x="78" y="12" width="6" height="6" fill="#FFFFFF" />
<rect x="84" y="12" width="6" height="6" fill="#FFFFFF" />
<rect x="90" y="12" width="6" height="6" fill="#FFFFFF" />
<rect x="96" y="12" width="6" height="6" fill="#FFFFFF" />
<rect x="102" y="12" width="6" height="6" fill="#000000" />
<rect x="108" y="12" width="6" height="6" fill="#000000" />
<rect x="114" y="12" width="6" height="6" fill="#FFFFFF" />
<rect x="120" y="12" width="6" height="6" fill="#FFFFFF" />
<rect x="126" y="12" width="6" height="6" fill="#FFFFFF" />
<rect x="132" y="12" width="6" height="6" fill="#FFFFFF" />
<rect x="138" y="12" width="6" height="6" fill="#FFFFFF" />
<rect x="144" y="12" width="6" height="6" fill="#000000" />
<rect x="150" y="12" width="6" height="6" fill="#FFFFFF" />
<rect x="156" y="12" width="6" height="6" fill="#000000" />
<rect x="162" y="12" width="6" height="6" fill="#000000" />
<rect x="168" y="12" width="6" height="6" fill="#000000" />
<rect x="174" y="12" width="6" height="6" fill="#000000" />
<rect x="180" y="12" width="6" height="6" fill="#FFFFFF" />
<rect x="186" y="12" width="6" height="6" fill="#FFFFFF" />
<rect x="192" y="12" width="6" height="6" fill="#FFFFFF" />
<rect x="198" y="12" width="6" height="6" fill="#FFFFFF" />
<rect x="204" y="12" width="6" height="6" fill="#000000" />
<rect x="210" y="12" width="6" height="6" fill="#000000" />
<rect x="216" y="12" width="6" height="6" fill="#000000" />
<rect x="222" y="12" width="6" height="6" fill="#000000" />
<rect x="228" y="12" width="6" height="6" fill="#000000" />
<rect x="234" y="12" width="6" height="6" fill="#000000" />
<rect x="240" y="12" width="6" height="6" fill="#000000" />
<rect x="246" y="12" width="6" height="6" fill="#000000" />
<rect x="252" y="12" width="6" height="6" fill="#000000" />
<rect x="0" y="18" width="6" height="6" fill="#000000" />
<rect x="6" y="18" width="6" height="6" fill="#000000" />
<rect x="12" y="18" width="6" height="6" fill="#000000" />
<rect x="18" y="18" width="6" height="6" fill="#000000" />
<rect x="24" y="18" width="6" height="6" fill="#000000" />
<rect x="30" y="18" width="6" height="6" fill="#000000" />
<rect x="36" y="18" width="6" height="6" fill="#000000" />
<rect x="42" y="18" width="6" height="6" fill="#000000" />
<rect x="48" y="18" width="6" height="6" fill="#000000" />
<rect x="54" y="18" width="6" height="6" fill="#000000" />
<rect x="60" y="18" width="6" height="6" fill="#000000" />
<rect x="66" y="18" width="6" height="6" fill="#FFFFFF" />
<rect x="72" y="18" width="6" height="6" fill="#000000" />
<rect x="78" y="18" width="6" height="6" fill="#FFFFFF" />
<rect x="84" y="18" width="6" height="6" fill="#000000" />
<rect x="90" y="18" width="6" height="6" fill="#000000" />
<rect x="96" y="18" width="6" height="6" fill="#000000" />
<rect x="102" y="18" width="6" height="6" fill="#000000" />
<rect x="108" y="18" width="6" height="6" fill="#000000" />
<rect x="114" y="18" width="6" height="6" fill="#FFFFFF" />
<rect x="120" y="18" width="6" height="6" fill="#000000" />
<rect x="126" y="18" width="6" height="6" fill="#000000" />
<rect x="132" y="18" width="6" height="6" fill="#000000" />
<rect x="138" y="18" width="6" height="6" fill="#FFFFFF" />
<rect x="144" y="18" width="6" height="6" fill="#000000" />
<rect x="150" y="18" width="6" height="6" fill="#FFFFFF" />
<rect x="156" y="18" width="6" height="6" fill="#000000" />
<rect x="162" y="18" width="6" height="6" fill="#000000" />
<rect x="168" y="18" width="6" height="6" fill="#000000" />
<rect x="174" y="18" width="6" height="6" fill="#000000" />
<rect x="180" y="18" width="6" height="6" fill="#FFFFFF" />
<rect x="186" y="18" width="6" height="6" fill="#000000" />
<rect x="192" y="18" width="6" height="6" fill="#000000" />
<rect x="198" y="18" width="6" height="6" fill="#000000" />
<rect x="204" y="18" width="6" height="6" fill="#000000" />
<rect x="210" y="18" width="6" height="6" fill="#000000" />
<rect x="216" y="18" width="6" height="6" fill="#000000" />
<rect x="222" y="18" width="6" height="6" fill="#000000" />
<rect x="228" y="18" width="6" height="6" fill="#000000" />
<rect x="234" y="18" width="6" height="6" fill="#000000" />
<rect x="240" y="18" width="6" height="6" fill="#000000" />
<rect x="246" y="18" width="6" height="6" fill="#000000" />
<rect x="252" y="18" width="6" height="6" fill="#000000" />
<rect x="0" y="24" width="6" height="6" fill="#000000" />
<rect x="6" y="24" width="6" height="6" fill="#000000" />
<rect x="12" y="24" width="6" height="6" fill="#000000" />
<rect x="18" y="24" width="6" height="6" fill="#000000" />
<rect x="24" y="24" width="6" height="6" fill="#000000" />
<rect x="30" y="24" width="6" height="6" fill="#000000" />
<rect x="36" y="24" width="6" height="6" fill="#000000" />
<rect x="42" y="24" width="6" height="6" fill="#FFFFFF" />
<rect x="48" y="24" width="6" height="6" fill="#FFFFFF" />
<rect x="54" y="24" width="6" height="6" fill="#FFFFFF" />
<rect x="60" y="24" width="6" height="6" fill="#FFFFFF" />
<rect x="66" y="24" width="6" height="6" fill="#000000" />
<rect x="72" y="24" width="6" height="6" fill="#000000" />
<rect x="78" y="24" width="6" height="6" fill="#FFFFFF" />
<rect x="84" y="24" width="6" height="6" fill="#000000" />
<rect x="90" y="24" width="6" height="6" fill="#000000" />
<rect x="96" y="24" width="6" height="6" fill="#000000" />
<rect x="102" y="24" width="6" height="6" fill="#000000" />
<rect x="108" y="24" width="6" height="6" fill="#000000" />
<rect x="114" y="24" width="6" height="6" fill="#FFFFFF" />
<rect x="120" y="24" width="6" height="6" fill="#000000" />
<rect x="126" y="24" width="6" height="6" fill="#000000" />
<rect x="132" y="24" width="6" height="6" fill="#000000" />
<rect x="138" y="24" width="6" height="6" fill="#FFFFFF" />
<rect x="144" y="24" width="6" height="6" fill="#000000" />
<rect x="150" y="24" width="6" height="6" fill="#000000" />
<rect x="156" y="24" width="6" height="6" fill="#FFFFFF" />
<rect x="162" y="24" width="6" height="6" fill="#FFFFFF" />
<rect x="168" y="24" width="6" height="6" fill="#FFFFFF" />
<rect x="174" y="24" width="6" height="6" fill="#000000" />
<rect x="180" y="24" width="6" height="6" fill="#FFFFFF" />
<rect x="186" y="24" width="6" height="6" fill="#FFFFFF" />
<rect x="192" y="24" width="6" height="6" fill="#FFFFFF" />
<rect x="198" y="24" width="6" height="6" fill="#FFFFFF" />
<rect x="204" y="24" width="6" height="6" fill="#FFFFFF" />
<rect x="210" y="24" width="6" height="6" fill="#000000" />
<rect x="216" y="24" width="6" height="6" fill="#000000" />
<rect x="222" y="24" width="6" height="6" fill="#000000" />
<rect x="228" y="24" width="6" height="6" fill="#000000" />
<rect x="234" y="24" width="6" height="6" fill="#000000" />
<rect x="240" y="24" width="6" height="6" fill="#000000" />
<rect x="246" y="24" width="6" height="6" fill="#000000" />
<rect x="252" y="24" width="6" height="6" fill="#000000" />
<rect x="0" y="30" width="6" height="6" fill="#000000" />
<rect x="6" y="30" width="6" height="6" fill="#000000" />
<rect x="12" y="30" width="6" height="6" fill="#000000" />
<rect x="18" y="30" width="6" height="6" fill="#000000" />
<rect x="24" y="30" width="6" height="6" fill="#000000" />
<rect x="30" y="30" width="6" height="6" fill="#000000" />
<rect x="36" y="30" width="6" height="6" fill="#000000" />
<rect x="42" y="30" width="6" height="6" fill="#000000" />
<rect x="48" y="30" width="6" height="6" fill="#000000" />
<rect x="54" y="30" width="6" height="6" fill="#000000" />
<rect x="60" y="30" width="6" height="6" fill="#000000" />
<rect x="66" y="30" width="6" height="6" fill="#000000" />
<rect x="72" y="30" width="6" height="6" fill="#000000" />
<rect x="78" y="30" width="6" height="6" fill="#000000" />
<rect x="84" y="30" width="6" height="6" fill="#000000" />
<rect x="90" y="30" width="6" height="6" fill="#000000" />
<rect x="96" y="30" width="6" height="6" fill="#000000" />
<rect x="102" y="30" width="6" height="6" fill="#000000" />
<rect x="108" y="30" width="6" height="6" fill="#000000" />
<rect x="114" y="30" width="6" height="6" fill="#000000" />
<rect x="120" y="30" width="6" height="6" fill="#000000" />
<rect x="126" y="30" width="6" height="6" fill="#000000" />
<rect x="132" y="30" width="6" height="6" fill="#000000" />
<rect x="138" y="30" width="6" height="6" fill="#000000" />
<rect x="144" y="30" width="6" height="6" fill="#000000" />
<rect x="150" y="30" width="6" height="6" fill="#000000" />
<rect x="156" y="30" width="6" height="6" fill="#000000" />
<rect x="162" y="30" width="6" height="6" fill="#000000" />
<rect x="168" y="30" width="6" height="6" fill="#000000" />
<rect x="174" y="30" width="6" height="6" fill="#000000" />
<rect x="180" y="30" width="6" height="6" fill="#000000" />
<rect x="186" y="30" width="6" height="6" fill="#000000" />
<rect x="192" y="30" width="6" height="6" fill="#000000" />
<rect x="198" y="30" width="6" height="6" fill="#000000" />
<rect x="204" y="30" width="6" height="6" fill="#000000" />
<rect x="210" y="30" width="6" height="6" fill="#000000" />
<rect x="216" y="30" width="6" height="6" fill="#000000" />
<rect x="222" y="30" width="6" height="6" fill="#000000" />
<rect x="228" y="30" width="6" height="6" fill="#000000" />
<rect x="234" y="30" width="6" height="6" fill="#000000" />
<rect x="240" y="30" width="6" height="6" fill="#000000" />
<rect x="246" y="30" width="6" height="6" fill="#000000" />
<rect x="252" y="30" width="6" height="6" fill="#000000" />
<rect x="0" y="36" width="6" height="6" fill="#6ABE30" />
<rect x="6" y="36" width="6" height="6" fill="#000000" />
<rect x="12" y="36" width="6" height="6" fill="#6ABE30" />
<rect x="18" y="36" width="6" height="6" fill="#6ABE30" />
<rect x="24" y="36" width="6" height="6" fill="#6ABE30" />
<rect x="30" y="36" width="6" height="6" fill="#6ABE30" />
<rect x="36" y="36" width="6" height="6" fill="#000000" />
<rect x="42" y="36" width="6" height="6" fill="#000000" />
<rect x="48" y="36" width="6" height="6" fill="#6ABE30" />
<rect x="54" y="36" width="6" height="6" fill="#000000" />
<rect x="60" y="36" width="6" height="6" fill="#000000" />
<rect x="66" y="36" width="6" height="6" fill="#000000" />
<rect x="72" y="36" width="6" height="6" fill="#6ABE30" />
<rect x="78" y="36" width="6" height="6" fill="#000000" />
<rect x="84" y="36" width="6" height="6" fill="#000000" />
<rect x="90" y="36" width="6" height="6" fill="#6ABE30" />
<rect x="96" y="36" width="6" height="6" fill="#6ABE30" />
<rect x="102" y="36" width="6" height="6" fill="#6ABE30" />
<rect x="108" y="36" width="6" height="6" fill="#000000" />
<rect x="114" y="36" width="6" height="6" fill="#000000" />
<rect x="120" y="36" width="6" height="6" fill="#6ABE30" />
<rect x="126" y="36" width="6" height="6" fill="#6ABE30" />
<rect x="132" y="36" width="6" height="6" fill="#6ABE30" />
<rect x="138" y="36" width="6" height="6" fill="#6ABE30" />
<rect x="144" y="36" width="6" height="6" fill="#000000" />
<rect x="150" y="36" width="6" height="6" fill="#000000" />
<rect x="156" y="36" width="6" height="6" fill="#6ABE30" />
<rect x="162" y="36" width="6" height="6" fill="#6ABE30" />
<rect x="168" y="36" width="6" height="6" fill="#6ABE30" />
<rect x="174" y="36" width="6" height="6" fill="#6ABE30" />
<rect x="180" y="36" width="6" height="6" fill="#6ABE30" />
<rect x="186" y="36" width="6" height="6" fill="#000000" />
<rect x="192" y="36" width="6" height="6" fill="#6ABE30" />
<rect x="198" y="36" width="6" height="6" fill="#6ABE30" />
<rect x="204" y="36" width="6" height="6" fill="#6ABE30" />
<rect x="210" y="36" width="6" height="6" fill="#6ABE30" />
<rect x="216" y="36" width="6" height="6" fill="#000000" />
<rect x="222" y="36" width="6" height="6" fill="#000000" />
<rect x="228" y="36" width="6" height="6" fill="#000000" />
<rect x="234" y="36" width="6" height="6" fill="#6ABE30" />
<rect x="240" y="36" width="6" height="6" fill="#6ABE30" />
<rect x="246" y="36" width="6" height="6" fill="#6ABE30" />
<rect x="252" y="36" width="6" height="6" fill="#6ABE30" />
<rect x="0" y="42" width="6" height="6" fill="#6ABE30" />
<rect x="6" y="42" width="6" height="6" fill="#000000" />
<rect x="12" y="42" width="6" height="6" fill="#6ABE30" />
<rect x="18" y="42" width="6" height="6" fill="#000000" />
<rect x="24" y="42" width="6" height="6" fill="#000000" />
<rect x="30" y="42" width="6" height="6" fill="#000000" />
<rect x="36" y="42" width="6" height="6" fill="#6ABE30" />
<rect x="42" y="42" width="6" height="6" fill="#000000" />
<rect x="48" y="42" width="6" height="6" fill="#6ABE30" />
<rect x="54" y="42" width="6" height="6" fill="#000000" />
<rect x="60" y="42" width="6" height="6" fill="#000000" />
<rect x="66" y="42" width="6" height="6" fill="#000000" />
<rect x="72" y="42" width="6" height="6" fill="#6ABE30" />
<rect x="78" y="42" width="6" height="6" fill="#000000" />
<rect x="84" y="42" width="6" height="6" fill="#6ABE30" />
<rect x="90" y="42" width="6" height="6" fill="#000000" />
<rect x="96" y="42" width="6" height="6" fill="#000000" />
<rect x="102" y="42" width="6" height="6" fill="#000000" />
<rect x="108" y="42" width="6" height="6" fill="#6ABE30" />
<rect x="114" y="42" width="6" height="6" fill="#000000" />
<rect x="120" y="42" width="6" height="6" fill="#6ABE30" />
<rect x="126" y="42" width="6" height="6" fill="#000000" />
<rect x="132" y="42" width="6" height="6" fill="#000000" />
<rect x="138" y="42" width="6" height="6" fill="#000000" />
<rect x="144" y="42" width="6" height="6" fill="#6ABE30" />
<rect x="150" y="42" width="6" height="6" fill="#000000" />
<rect x="156" y="42" width="6" height="6" fill="#6ABE30" />
<rect x="162" y="42" width="6" height="6" fill="#000000" />
<rect x="168" y="42" width="6" height="6" fill="#000000" />
<rect x="174" y="42" width="6" height="6" fill="#000000" />
<rect x="180" y="42" width="6" height="6" fill="#000000" />
<rect x="186" y="42" width="6" height="6" fill="#000000" />
<rect x="192" y="42" width="6" height="6" fill="#6ABE30" />
<rect x="198" y="42" width="6" height="6" fill="#000000" />
<rect x="204" y="42" width="6" height="6" fill="#000000" />
<rect x="210" y="42" width="6" height="6" fill="#000000" />
<rect x="216" y="42" width="6" height="6" fill="#6ABE30" />
<rect x="222" y="42" width="6" height="6" fill="#000000" />
<rect x="228" y="42" width="6" height="6" fill="#6ABE30" />
<rect x="234" y="42" width="6" height="6" fill="#000000" />
<rect x="240" y="42" width="6" height="6" fill="#000000" />
<rect x="246" y="42" width="6" height="6" fill="#000000" />
<rect x="252" y="42" width="6" height="6" fill="#000000" />
<rect x="0" y="48" width="6" height="6" fill="#6ABE30" />
<rect x="6" y="48" width="6" height="6" fill="#000000" />
<rect x="12" y="48" width="6" height="6" fill="#6ABE30" />
<rect x="18" y="48" width="6" height="6" fill="#000000" />
<rect x="24" y="48" width="6" height="6" fill="#000000" />
<rect x="30" y="48" width="6" height="6" fill="#000000" />
<rect x="36" y="48" width="6" height="6" fill="#6ABE30" />
<rect x="42" y="48" width="6" height="6" fill="#000000" />
<rect x="48" y="48" width="6" height="6" fill="#6ABE30" />
<rect x="54" y="48" width="6" height="6" fill="#000000" />
<rect x="60" y="48" width="6" height="6" fill="#000000" />
<rect x="66" y="48" width="6" height="6" fill="#000000" />
<rect x="72" y="48" width="6" height="6" fill="#6ABE30" />
<rect x="78" y="48" width="6" height="6" fill="#000000" />
<rect x="84" y="48" width="6" height="6" fill="#6ABE30" />
<rect x="90" y="48" width="6" height="6" fill="#6ABE30" />
<rect x="96" y="48" width="6" height="6" fill="#6ABE30" />
<rect x="102" y="48" width="6" height="6" fill="#6ABE30" />
<rect x="108" y="48" width="6" height="6" fill="#6ABE30" />
<rect x="114" y="48" width="6" height="6" fill="#000000" />
<rect x="120" y="48" width="6" height="6" fill="#6ABE30" />
<rect x="126" y="48" width="6" height="6" fill="#000000" />
<rect x="132" y="48" width="6" height="6" fill="#000000" />
<rect x="138" y="48" width="6" height="6" fill="#000000" />
<rect x="144" y="48" width="6" height="6" fill="#6ABE30" />
<rect x="150" y="48" width="6" height="6" fill="#000000" />
<rect x="156" y="48" width="6" height="6" fill="#6ABE30" />
<rect x="162" y="48" width="6" height="6" fill="#6ABE30" />
<rect x="168" y="48" width="6" height="6" fill="#6ABE30" />
<rect x="174" y="48" width="6" height="6" fill="#6ABE30" />
<rect x="180" y="48" width="6" height="6" fill="#000000" />
<rect x="186" y="48" width="6" height="6" fill="#000000" />
<rect x="192" y="48" width="6" height="6" fill="#6ABE30" />
<rect x="198" y="48" width="6" height="6" fill="#6ABE30" />
<rect x="204" y="48" width="6" height="6" fill="#6ABE30" />
<rect x="210" y="48" width="6" height="6" fill="#6ABE30" />
<rect x="216" y="48" width="6" height="6" fill="#000000" />
<rect x="222" y="48" width="6" height="6" fill="#000000" />
<rect x="228" y="48" width="6" height="6" fill="#000000" />
<rect x="234" y="48" width="6" height="6" fill="#6ABE30" />
<rect x="240" y="48" width="6" height="6" fill="#6ABE30" />
<rect x="246" y="48" width="6" height="6" fill="#6ABE30" />
<rect x="252" y="48" width="6" height="6" fill="#000000" />
<rect x="0" y="54" width="6" height="6" fill="#6ABE30" />
<rect x="6" y="54" width="6" height="6" fill="#000000" />
<rect x="12" y="54" width="6" height="6" fill="#6ABE30" />
<rect x="18" y="54" width="6" height="6" fill="#000000" />
<rect x="24" y="54" width="6" height="6" fill="#000000" />
<rect x="30" y="54" width="6" height="6" fill="#000000" />
<rect x="36" y="54" width="6" height="6" fill="#6ABE30" />
<rect x="42" y="54" width="6" height="6" fill="#000000" />
<rect x="48" y="54" width="6" height="6" fill="#000000" />
<rect x="54" y="54" width="6" height="6" fill="#6ABE30" />
<rect x="60" y="54" width="6" height="6" fill="#000000" />
<rect x="66" y="54" width="6" height="6" fill="#6ABE30" />
<rect x="72" y="54" width="6" height="6" fill="#000000" />
<rect x="78" y="54" width="6" height="6" fill="#000000" />
<rect x="84" y="54" width="6" height="6" fill="#6ABE30" />
<rect x="90" y="54" width="6" height="6" fill="#000000" />
<rect x="96" y="54" width="6" height="6" fill="#000000" />
<rect x="102" y="54" width="6" height="6" fill="#000000" />
<rect x="108" y="54" width="6" height="6" fill="#6ABE30" />
<rect x="114" y="54" width="6" height="6" fill="#000000" />
<rect x="120" y="54" width="6" height="6" fill="#6ABE30" />
<rect x="126" y="54" width="6" height="6" fill="#000000" />
<rect x="132" y="54" width="6" height="6" fill="#000000" />
<rect x="138" y="54" width="6" height="6" fill="#000000" />
<rect x="144" y="54" width="6" height="6" fill="#6ABE30" />
<rect x="150" y="54" width="6" height="6" fill="#000000" />
<rect x="156" y="54" width="6" height="6" fill="#6ABE30" />
<rect x="162" y="54" width="6" height="6" fill="#000000" />
<rect x="168" y="54" width="6" height="6" fill="#000000" />
<rect x="174" y="54" width="6" height="6" fill="#000000" />
<rect x="180" y="54" width="6" height="6" fill="#000000" />
<rect x="186" y="54" width="6" height="6" fill="#000000" />
<rect x="192" y="54" width="6" height="6" fill="#6ABE30" />
<rect x="198" y="54" width="6" height="6" fill="#000000" />
<rect x="204" y="54" width="6" height="6" fill="#000000" />
<rect x="210" y="54" width="6" height="6" fill="#000000" />
<rect x="216" y="54" width="6" height="6" fill="#6ABE30" />
<rect x="222" y="54" width="6" height="6" fill="#000000" />
<rect x="228" y="54" width="6" height="6" fill="#000000" />
<rect x="234" y="54" width="6" height="6" fill="#000000" />
<rect x="240" y="54" width="6" height="6" fill="#000000" />
<rect x="246" y="54" width="6" height="6" fill="#000000" />
<rect x="252" y="54" width="6" height="6" fill="#6ABE30" />
<rect x="0" y="60" width="6" height="6" fill="#6ABE30" />
<rect x="6" y="60" width="6" height="6" fill="#000000" />
<rect x="12" y="60" width="6" height="6" fill="#6ABE30" />
<rect x="18" y="60" width="6" height="6" fill="#000000" />
<rect x="24" y="60" width="6" height="6" fill="#000000" />
<rect x="30" y="60" width="6" height="6" fill="#000000" />
<rect x="36" y="60" width="6" height="6" fill="#6ABE30" />
<rect x="42" y="60" width="6" height="6" fill="#000000" />
<rect x="48" y="60" width="6" height="6" fill="#000000" />
<rect x="54" y="60" width="6" height="6" fill="#000000" />
<rect x="60" y="60" width="6" height="6" fill="#6ABE30" />
<rect x="66" y="60" width="6" height="6" fill="#000000" />
<rect x="72" y="60" width="6" height="6" fill="#000000" />
<rect x="78" y="60" width="6" height="6" fill="#000000" />
<rect x="84" y="60" width="6" height="6" fill="#6ABE30" />
<rect x="90" y="60" width="6" height="6" fill="#000000" />
<rect x="96" y="60" width="6" height="6" fill="#000000" />
<rect x="102" y="60" width="6" height="6" fill="#000000" />
<rect x="108" y="60" width="6" height="6" fill="#6ABE30" />
<rect x="114" y="60" width="6" height="6" fill="#000000" />
<rect x="120" y="60" width="6" height="6" fill="#6ABE30" />
<rect x="126" y="60" width="6" height="6" fill="#6ABE30" />
<rect x="132" y="60" width="6" height="6" fill="#6ABE30" />
<rect x="138" y="60" width="6" height="6" fill="#6ABE30" />
<rect x="144" y="60" width="6" height="6" fill="#000000" />
<rect x="150" y="60" width="6" height="6" fill="#000000" />
<rect x="156" y="60" width="6" height="6" fill="#6ABE30" />
<rect x="162" y="60" width="6" height="6" fill="#6ABE30" />
<rect x="168" y="60" width="6" height="6" fill="#6ABE30" />
<rect x="174" y="60" width="6" height="6" fill="#6ABE30" />
<rect x="180" y="60" width="6" height="6" fill="#6ABE30" />
<rect x="186" y="60" width="6" height="6" fill="#000000" />
<rect x="192" y="60" width="6" height="6" fill="#6ABE30" />
<rect x="198" y="60" width="6" height="6" fill="#000000" />
<rect x="204" y="60" width="6" height="6" fill="#000000" />
<rect x="210" y="60" width="6" height="6" fill="#000000" />
<rect x="216" y="60" width="6" height="6" fill="#6ABE30" />
<rect x="222" y="60" width="6" height="6" fill="#000000" />
<rect x="228" y="60" width="6" height="6" fill="#6ABE30" />
<rect x="234" y="60" width="6" height="6" fill="#6ABE30" />
<rect x="240" y="60" width="6" height="6" fill="#6ABE30" />
<rect x="246" y="60" width="6" height="6" fill="#6ABE30" />
<rect x="252" y="60" width="6" height="6" fill="#000000" />
</svg>