<?xml version="1.0" encoding="UTF-8" ?>
<svg version="1.1" width="210" height="30" xmlns="http://www.w3.org/2000/svg" shape-rendering="crispEdges">
<rect x="0" y="0" width="6" height="6" fill="#FFFFFF" />
<rect x="6" y="0" width="6" height="6" fill="#FFFFFF" />
<rect x="12" y="0" width="6" height="6" fill="#FFFFFF" />
<rect x="18" y="0" width="6" height="6" fill="#FFFFFF" />
<rect x="24" y="0" width="6" height="6" fill="#000000" />
<rect x="30" y="0" width="6" height="6" fill="#000000" />
<rect x="36" y="0" width="6" height="6" fill="#000000" />
<rect x="42" y="0" width="6" height="6" fill="#FFFFFF" />
<rect x="48" y="0" width="6" height="6" fill="#FFFFFF" />
<rect x="54" y="0" width="6" height="6" fill="#FFFFFF" />
<rect x="60" y="0" width="6" height="6" fill="#000000" />
<rect x="66" y="0" width="6" height="6" fill="#000000" />
<rect x="72" y="0" width="6" height="6" fill="#FFFFFF" />
<rect x="78" y="0" width="6" height="6" fill="#000000" />
<rect x="84" y="0" width="6" height="6" fill="#000000" />
<rect x="90" y="0" width="6" height="6" fill="#000000" />
<rect x="96" y="0" width="6" height="6" fill="#FFFFFF" />
<rect x="102" y="0" width="6" height="6" fill="#000000" />
<rect x="108" y="0" width="6" height="6" fill="#000000" />
<rect x="114" y="0" width="6" height="6" fill="#FFFFFF" />
<rect x="120" y="0" width="6" height="6" fill="#FFFFFF" />
<rect x="126" y="0" width="6" height="6" fill="#FFFFFF" />
<rect x="132" y="0" width="6" height="6" fill="#FFFFFF" />
<rect x="138" y="0" width="6" height="6" fill="#000000" />
<rect x="144" y="0" width="6" height="6" fill="#FFFFFF" />
<rect x="150" y="0" width="6" height="6" fill="#FFFFFF" />
<rect x="156" y="0" width="6" height="6" fill="#FFFFFF" />
<rect x="162" y="0" width="6" height="6" fill="#FFFFFF" />
<rect x="168" y="0" width="6" height="6" fill="#FFFFFF" />
<rect x="174" y="0" width="6" height="6" fill="#000000" />
<rect x="180" y="0" width="6" height="6" fill="#FFFFFF" />
<rect x="186" y="0" width="6" height="6" fill="#FFFFFF" />
<rect x="192" y="0" width="6" height="6" fill="#FFFFFF" />
<rect x="198" y="0" width="6" height="6" fill="#FFFFFF" />
<rect x="204" y="0" width="6" height="6" fill="#000000" />
<rect x="0" y="6" width="6" height="6" fill="#FFFFFF" />
<rect x="6" y="6" width="6" height="6" fill="#000000" />
<rect x="12" y="6" width="6" height="6" fill="#000000" />
<rect x="18" y="6" width="6" height="6" fill="#000000" />
<rect x="24" y="6" width="6" height="6" fill="#FFFFFF" />
<rect x="30" y="6" width="6" height="6" fill="#000000" />
<rect x="36" y="6" width="6" height="6" fill="#FFFFFF" />
<rect x="42" y="6" width="6" height="6" fill="#000000" />
<rect x="48" y="6" width="6" height="6" fill="#000000" />
<rect x="54" y="6" width="6" height="6" fill="#000000" />
<rect x="60" y="6" width="6" height="6" fill="#FFFFFF" />
<rect x="66" y="6" width="6" height="6" fill="#000000" />
<rect x="72" y="6" width="6" height="6" fill="#FFFFFF" />
<rect x="78" y="6" width="6" height="6" fill="#000000" />
<rect x="84" y="6" width="6" height="6" fill="#000000" />
<rect x="90" y="6" width="6" height="6" fill="#000000" />
<rect x="96" y="6" width="6" height="6" fill="#FFFFFF" />
<rect x="102" y="6" width="6" height="6" fill="#000000" />
<rect x="108" y="6" width="6" height="6" fill="#FFFFFF" />
<rect x="114" y="6" width="6" height="6" fill="#000000" />
<rect x="120" y="6" width="6" height="6" fill="#000000" />
<rect x="126" y="6" width="6" height="6" fill="#000000" />
<rect x="132" y="6" width="6" height="6" fill="#000000" />
<rect x="138" y="6" width="6" height="6" fill="#000000" />
<rect x="144" y="6" width="6" height="6" fill="#FFFFFF" />
<rect x="150" y="6" width="6" height="6" fill="#000000" />
<rect x="156" y="6" width="6" height="6" fill="#000000" />
<rect x="162" y="6" width="6" height="6" fill="#000000" />
<rect x="168" y="6" width="6" height="6" fill="#000000" />
<rect x="174" y="6" width="6" height="6" fill="#000000" />
<rect x="180" y="6" width="6" height="6" fill="#FFFFFF" />
<rect x="186" y="6" width="6" height="6" fill="#000000" />
<rect x="192" y="6" width="6" height="6" fill="#000000" />
<rect x="198" y="6" width="6" height="6" fill="#000000" />
<rect x="204" y="6" width="6" height="6" fill="#FFFFFF" />
<rect x="0" y="12" width="6" height="6" fill="#FFFFFF" />
<rect x="6" y="12" width="6" height="6" fill="#FFFFFF" />
<rect x="12" y="12" width="6" height="6" fill="#FFFFFF" />
<rect x="18" y="12" width="6" height="6" fill="#FFFFFF" />
<rect x="24" y="12" width="6" height="6" fill="#000000" />
<rect x="30" y="12" width="6" height="6" fill="#000000" />
<rect x="36" y="12" width="6" height="6" fill="#FFFFFF" />
<rect x="42" y="12" width="6" height="6" fill="#FFFFFF" />
<rect x="48" y="12" width="6" height="6" fill="#FFFFFF" />
<rect x="54" y="12" width="6" height="6" fill="#FFFFFF" />
<rect x="60" y="12" width="6" height="6" fill="#FFFFFF" />
<rect x="66" y="12" width="6" height="6" fill="#000000" />
<rect x="72" y="12" width="6" height="6" fill="#FFFFFF" />
<rect x="78" y="12" width="6" height="6" fill="#000000" />
<rect x="84" y="12" width="6" height="6" fill="#000000" />
<rect x="90" y="12" width="6" height="6" fill="#000000" />
<rect x="96" y="12" width="6" height="6" fill="#FFFFFF" />
<rect x="102" y="12" width="6" height="6" fill="#000000" />
<rect x="108" y="12" width="6" height="6" fill="#000000" />
<rect x="114" y="12" width="6" height="6" fill="#FFFFFF" />
<rect x="120" y="12" width="6" height="6" fill="#FFFFFF" />
<rect x="126" y="12" width="6" height="6" fill="#FFFFFF" />
<rect x="132" y="12" width="6" height="6" fill="#000000" />
<rect x="138" y="12" width="6" height="6" fill="#000000" />
<rect x="144" y="12" width="6" height="6" fill="#FFFFFF" />
<rect x="150" y="12" width="6" height="6" fill="#FFFFFF" />
<rect x="156" y="12" width="6" height="6" fill="#FFFFFF" />
<rect x="162" y="12" width="6" height="6" fill="#FFFFFF" />
<rect x="168" y="12" width="6" height="6" fill="#000000" />
<rect x="174" y="12" width="6" height="6" fill="#000000" />
<rect x="180" y="12" width="6" height="6" fill="#FFFFFF" />
<rect x="186" y="12" width="6" height="6" fill="#000000" />
<rect x="192" y="12" width="6" height="6" fill="#000000" />
<rect x="198" y="12" width="6" height="6" fill="#000000" />
<rect x="204" y="12" width="6" height="6" fill="#FFFFFF" />
<rect x="0" y="18" width="6" height="6" fill="#FFFFFF" />
<rect x="6" y="18" width="6" height="6" fill="#000000" />
<rect x="12" y="18" width="6" height="6" fill="#000000" />
<rect x="18" y="18" width="6" height="6" fill="#000000" />
<rect x="24" y="18" width="6" height="6" fill="#000000" />
<rect x="30" y="18" width="6" height="6" fill="#000000" />
<rect x="36" y="18" width="6" height="6" fill="#FFFFFF" />
<rect x="42" y="18" width="6" height="6" fill="#000000" />
<rect x="48" y="18" width="6" height="6" fill="#000000" />
<rect x="54" y="18" width="6" height="6" fill="#000000" />
<rect x="60" y="18" width="6" height="6" fill="#FFFFFF" />
<rect x="66" y="18" width="6" height="6" fill="#000000" />
<rect x="72" y="18" width="6" height="6" fill="#FFFFFF" />
<rect x="78" y="18" width="6" height="6" fill="#000000" />
<rect x="84" y="18" width="6" height="6" fill="#000000" />
<rect x="90" y="18" width="6" height="6" fill="#000000" />
<rect x="96" y="18" width="6" height="6" fill="#FFFFFF" />
<rect x="102" y="18" width="6" height="6" fill="#000000" />
<rect x="108" y="18" width="6" height="6" fill="#000000" />
<rect x="114" y="18" width="6" height="6" fill="#000000" />
<rect x="120" y="18" width="6" height="6" fill="#000000" />
<rect x="126" y="18" width="6" height="6" fill="#000000" />
<rect x="132" y="18" width="6" height="6" fill="#FFFFFF" />
<rect x="138" y="18" width="6" height="6" fill="#000000" />
<rect x="144" y="18" width="6" height="6" fill="#FFFFFF" />
<rect x="150" y="18" width="6" height="6" fill="#000000" />
<rect x="156" y="18" width="6" height="6" fill="#000000" />
<rect x="162" y="18" width="6" height="6" fill="#000000" />
<rect x="168" y="18" width="6" height="6" fill="#000000" />
<rect x="174" y="18" width="6" height="6" fill="#000000" />
<rect x="180" y="18" width="6" height="6" fill="#FFFFFF" />
<rect x="186" y="18" width="6" height="6" fill="#000000" />
<rect x="192" y="18" width="6" height="6" fill="#000000" />
<rect x="198" y="18" width="6" height="6" fill="#000000" />
<rect x="204" y="18" width="6" height="6" fill="#FFFFFF" />
<rect x="0" y="24" width="6" height="6" fill="#FFFFFF" />
<rect x="6" y="24" width="6" height="6" fill="#000000" />
<rect x="12" y="24" width="6" height="6" fill="#000000" />
<rect x="18" y="24" width="6" height="6" fill="#000000" />
<rect x="24" y="24" width="6" height="6" fill="#000000" />
<rect x="30" y="24" width="6" height="6" fill="#000000" />
<rect x="36" y="24" width="6" height="6" fill="#FFFFFF" />
<rect x="42" y="24" width="6" height="6" fill="#000000" />
<rect x="48" y="24" width="6" height="6" fill="#000000" />
<rect x="54" y="24" width="6" height="6" fill="#000000" />
<rect x="60" y="24" width="6" height="6" fill="#FFFFFF" />
<rect x="66" y="24" width="6" height="6" fill="#000000" />
<rect x="72" y="24" width="6" height="6" fill="#000000" />
<rect x="78" y="24" width="6" height="6" fill="#FFFFFF" />
<rect x="84" y="24" width="6" height="6" fill="#FFFFFF" />
<rect x="90" y="24" width="6" height="6" fill="#FFFFFF" />
<rect x="96" y="24" width="6" height="6" fill="#000000" />
<rect x="102" y="24" width="6" height="6" fill="#000000" />
<rect x="108" y="24" width="6" height="6" fill="#FFFFFF" />
<rect x="114" y="24" width="6" height="6" fill="#FFFFFF" />
<rect x="120" y="24" width="6" height="6" fill="#FFFFFF" />
<rect x="126" y="24" width="6" height="6" fill="#FFFFFF" />
<rect x="132" y="24" width="6" height="6" fill="#000000" />
<rect x="138" y="24" width="6" height="6" fill="#000000" />
<rect x="144" y="24" width="6" height="6" fill="#FFFFFF" />
<rect x="150" y="24" width="6" height="6" fill="#FFFFFF" />
<rect x="156" y="24" width="6" height="6" fill="#FFFFFF" />
<rect x="162" y="24" width="6" height="6" fill="#FFFFFF" />
<rect x="168" y="24" width="6" height="6" fill="#FFFFFF" />
<rect x="174" y="24" width="6" height="6" fill="#000000" />
<rect x="180" y="24" width="6" height="6" fill="#FFFFFF" />
<rect x="186" y="24" width="6" height="6" fill="#FFFFFF" />
<rect x="192" y="24" width="6" height="6" fill="#FFFFFF" />
<rect x="198" y="24" width="6" height="6" fill="#FFFFFF" />
<rect x="204" y="24" width="6" height="6" fill="#000000" />
</svg>