<?xml version="1.0" encoding="UTF-8" ?>
<svg version="1.1" width="606" height="30" xmlns="http://www.w3.org/2000/svg" shape-rendering="crispEdges">
<rect x="0" y="0" width="6" height="6" fill="#FFFFFF" />
<rect x="6" y="0" width="6" height="6" fill="#FFFFFF" />
<rect x="12" y="0" width="6" height="6" fill="#FFFFFF" />
<rect x="18" y="0" width="6" height="6" fill="#FFFFFF" />
<rect x="24" y="0" width="6" height="6" fill="#000000" />
<rect x="30" y="0" width="6" height="6" fill="#000000" />
<rect x="36" y="0" width="6" height="6" fill="#FFFFFF" />
<rect x="42" y="0" width="6" height="6" fill="#000000" />
<rect x="48" y="0" width="6" height="6" fill="#000000" />
<rect x="54" y="0" width="6" height="6" fill="#000000" />
<rect x="60" y="0" width="6" height="6" fill="#000000" />
<rect x="66" y="0" width="6" height="6" fill="#000000" />
<rect x="72" y="0" width="6" height="6" fill="#FFFFFF" />
<rect x="78" y="0" width="6" height="6" fill="#FFFFFF" />
<rect x="84" y="0" width="6" height="6" fill="#FFFFFF" />
<rect x="90" y="0" width="6" height="6" fill="#000000" />
<rect x="96" y="0" width="6" height="6" fill="#000000" />
<rect x="102" y="0" width="6" height="6" fill="#FFFFFF" />
<rect x="108" y="0" width="6" height="6" fill="#000000" />
<rect x="114" y="0" width="6" height="6" fill="#000000" />
<rect x="120" y="0" width="6" height="6" fill="#000000" />
<rect x="126" y="0" width="6" height="6" fill="#FFFFFF" />
<rect x="132" y="0" width="6" height="6" fill="#000000" />
<rect x="138" y="0" width="6" height="6" fill="#000000" />
<rect x="144" y="0" width="6" height="6" fill="#000000" />
<rect x="150" y="0" width="6" height="6" fill="#000000" />
<rect x="156" y="0" width="6" height="6" fill="#000000" />
<rect x="162" y="0" width="6" height="6" fill="#FFFFFF" />
<rect x="168" y="0" width="6" height="6" fill="#FFFFFF" />
<rect x="174" y="0" width="6" height="6" fill="#FFFFFF" />
<rect x="180" y="0" width="6" height="6" fill="#FFFFFF" />
<rect x="186" y="0" width="6" height="6" fill="#000000" />
<rect x="192" y="0" width="6" height="6" fill="#FFFFFF" />
<rect x="198" y="0" width="6" height="6" fill="#FFFFFF" />
<rect x="204" y="0" width="6" height="6" fill="#FFFFFF" />
<rect x="210" y="0" width="6" height="6" fill="#FFFFFF" />
<rect x="216" y="0" width="6" height="6" fill="#000000" />
<rect x="222" y="0" width="6" height="6" fill="#000000" />
<rect x="228" y="0" width="6" height="6" fill="#000000" />
<rect x="234" y="0" width="6" height="6" fill="#FFFFFF" />
<rect x="240" y="0" width="6" height="6" fill="#FFFFFF" />
<rect x="246" y="0" width="6" height="6" fill="#FFFFFF" />
<rect x="252" y="0" width="6" height="6" fill="#000000" />
<rect x="258" y="0" width="6" height="6" fill="#000000" />
<rect x="264" y="0" width="6" height="6" fill="#000000" />
<rect x="270" y="0" width="6" height="6" fill="#FFFFFF" />
<rect x="276" y="0" width="6" height="6" fill="#FFFFFF" />
<rect x="282" y="0" width="6" height="6" fill="#FFFFFF" />
<rect x="288" y="0" width="6" height="6" fill="#000000" />
<rect x="294" y="0" width="6" height="6" fill="#FFFFFF" />
<rect x="300" y="0" width="6" height="6" fill="#FFFFFF" />
<rect x="306" y="0" width="6" height="6" fill="#FFFFFF" />
<rect x="312" y="0" width="6" height="6" fill="#FFFFFF" />
<rect x="318" y="0" width="6" height="6" fill="#FFFFFF" />
<rect x="324" y="0" width="6" height="6" fill="#000000" />
<rect x="330" y="0" width="6" height="6" fill="#000000" />
<rect x="336" y="0" width="6" height="6" fill="#000000" />
<rect x="342" y="0" width="6" height="6" fill="#000000" />
<rect x="348" y="0" width="6" height="6" fill="#FFFFFF" />
<rect x="354" y="0" width="6" height="6" fill="#000000" />
<rect x="360" y="0" width="6" height="6" fill="#FFFFFF" />
<rect x="366" y="0" width="6" height="6" fill="#FFFFFF" />
<rect x="372" y="0" width="6" height="6" fill="#FFFFFF" />
<rect x="378" y="0" width="6" height="6" fill="#FFFFFF" />
<rect x="384" y="0" width="6" height="6" fill="#000000" />
<rect x="390" y="0" width="6" height="6" fill="#000000" />
<rect x="396" y="0" width="6" height="6" fill="#FFFFFF" />
<rect x="402" y="0" width="6" height="6" fill="#000000" />
<rect x="408" y="0" width="6" height="6" fill="#000000" />
<rect x="414" y="0" width="6" height="6" fill="#000000" />
<rect x="420" y="0" width="6" height="6" fill="#FFFFFF" />
<rect x="426" y="0" width="6" height="6" fill="#000000" />
<rect x="432" y="0" width="6" height="6" fill="#000000" />
<rect x="438" y="0" width="6" height="6" fill="#FFFFFF" />
<rect x="444" y="0" width="6" height="6" fill="#FFFFFF" />
<rect x="450" y="0" width="6" height="6" fill="#FFFFFF" />
<rect x="456" y="0" width="6" height="6" fill="#000000" />
<rect x="462" y="0" width="6" height="6" fill="#000000" />
<rect x="468" y="0" width="6" height="6" fill="#FFFFFF" />
<rect x="474" y="0" width="6" height="6" fill="#FFFFFF" />
<rect x="480" y="0" width="6" height="6" fill="#FFFFFF" />
<rect x="486" y="0" width="6" height="6" fill="#FFFFFF" />
<rect x="492" y="0" width="6" height="6" fill="#000000" />
<rect x="498" y="0" width="6" height="6" fill="#000000" />
<rect x="504" y="0" width="6" height="6" fill="#FFFFFF" />
<rect x="510" y="0" width="6" height="6" fill="#FFFFFF" />
<rect x="516" y="0" width="6" height="6" fill="#FFFFFF" />
<rect x="522" y="0" width="6" height="6" fill="#FFFFFF" />
<rect x="528" y="0" width="6" height="6" fill="#FFFFFF" />
<rect x="534" y="0" width="6" height="6" fill="#000000" />
<rect x="540" y="0" width="6" height="6" fill="#FFFFFF" />
<rect x="546" y="0" width="6" height="6" fill="#FFFFFF" />
<rect x="552" y="0" width="6" height="6" fill="#FFFFFF" />
<rect x="558" y="0" width="6" height="6" fill="#FFFFFF" />
<rect x="564" y="0" width="6" height="6" fill="#000000" />
<rect x="570" y="0" width="6" height="6" fill="#000000" />
<rect x="576" y="0" width="6" height="6" fill="#000000" />
<rect x="582" y="0" width="6" height="6" fill="#FFFFFF" />
<rect x="588" y="0" width="6" height="6" fill="#FFFFFF" />
<rect x="594" y="0" width="6" height="6" fill="#FFFFFF" />
<rect x="600" y="0" width="6" height="6" fill="#FFFFFF" />
<rect x="0" y="6" width="6" height="6" fill="#FFFFFF" />
<rect x="6" y="6" width="6" height="6" fill="#000000" />
<rect x="12" y="6" width="6" height="6" fill="#000000" />
<rect x="18" y="6" width="6" height="6" fill="#000000" />
<rect x="24" y="6" width="6" height="6" fill="#FFFFFF" />
<rect x="30" y="6" width="6" height="6" fill="#000000" />
<rect x="36" y="6" width="6" height="6" fill="#FFFFFF" />
<rect x="42" y="6" width="6" height="6" fill="#000000" />
<rect x="48" y="6" width="6" height="6" fill="#000000" />
<rect x="54" y="6" width="6" height="6" fill="#000000" />
<rect x="60" y="6" width="6" height="6" fill="#000000" />
<rect x="66" y="6" width="6" height="6" fill="#FFFFFF" />
<rect x="72" y="6" width="6" height="6" fill="#000000" />
<rect x="78" y="6" width="6" height="6" fill="#000000" />
<rect x="84" y="6" width="6" height="6" fill="#000000" />
<rect x="90" y="6" width="6" height="6" fill="#FFFFFF" />
<rect x="96" y="6" width="6" height="6" fill="#000000" />
<rect x="102" y="6" width="6" height="6" fill="#000000" />
<rect x="108" y="6" width="6" height="6" fill="#FFFFFF" />
<rect x="114" y="6" width="6" height="6" fill="#000000" />
<rect x="120" y="6" width="6" height="6" fill="#FFFFFF" />
<rect x="126" y="6" width="6" height="6" fill="#000000" />
<rect x="132" y="6" width="6" height="6" fill="#000000" />
<rect x="138" y="6" width="6" height="6" fill="#000000" />
<rect x="144" y="6" width="6" height="6" fill="#000000" />
<rect x="150" y="6" width="6" height="6" fill="#000000" />
<rect x="156" y="6" width="6" height="6" fill="#FFFFFF" />
<rect x="162" y="6" width="6" height="6" fill="#000000" />
<rect x="168" y="6" width="6" height="6" fill="#000000" />
<rect x="174" y="6" width="6" height="6" fill="#000000" />
<rect x="180" y="6" width="6" height="6" fill="#000000" />
<rect x="186" y="6" width="6" height="6" fill="#000000" />
<rect x="192" y="6" width="6" height="6" fill="#FFFFFF" />
<rect x="198" y="6" width="6" height="6" fill="#000000" />
<rect x="204" y="6" width="6" height="6" fill="#000000" />
<rect x="210" y="6" width="6" height="6" fill="#000000" />
<rect x="216" y="6" width="6" height="6" fill="#FFFFFF" />
<rect x="222" y="6" width="6" height="6" fill="#000000" />
<rect x="228" y="6" width="6" height="6" fill="#FFFFFF" />
<rect x="234" y="6" width="6" height="6" fill="#000000" />
<rect x="240" y="6" width="6" height="6" fill="#000000" />
<rect x="246" y="6" width="6" height="6" fill="#000000" />
<rect x="252" y="6" width="6" height="6" fill="#FFFFFF" />
<rect x="258" y="6" width="6" height="6" fill="#000000" />
<rect x="264" y="6" width="6" height="6" fill="#FFFFFF" />
<rect x="270" y="6" width="6" height="6" fill="#000000" />
<rect x="276" y="6" width="6" height="6" fill="#000000" />
<rect x="282" y="6" width="6" height="6" fill="#000000" />
<rect x="288" y="6" width="6" height="6" fill="#000000" />
<rect x="294" y="6" width="6" height="6" fill="#FFFFFF" />
<rect x="300" y="6" width="6" height="6" fill="#000000" />
<rect x="306" y="6" width="6" height="6" fill="#000000" />
<rect x="312" y="6" width="6" height="6" fill="#000000" />
<rect x="318" y="6" width="6" height="6" fill="#000000" />
<rect x="324" y="6" width="6" height="6" fill="#000000" />
<rect x="330" y="6" width="6" height="6" fill="#000000" />
<rect x="336" y="6" width="6" height="6" fill="#000000" />
<rect x="342" y="6" width="6" height="6" fill="#000000" />
<rect x="348" y="6" width="6" height="6" fill="#FFFFFF" />
<rect x="354" y="6" width="6" height="6" fill="#000000" />
<rect x="360" y="6" width="6" height="6" fill="#FFFFFF" />
<rect x="366" y="6" width="6" height="6" fill="#000000" />
<rect x="372" y="6" width="6" height="6" fill="#000000" />
<rect x="378" y="6" width="6" height="6" fill="#000000" />
<rect x="384" y="6" width="6" height="6" fill="#FFFFFF" />
<rect x="390" y="6" width="6" height="6" fill="#000000" />
<rect x="396" y="6" width="6" height="6" fill="#FFFFFF" />
<rect x="402" y="6" width="6" height="6" fill="#000000" />
<rect x="408" y="6" width="6" height="6" fill="#000000" />
<rect x="414" y="6" width="6" height="6" fill="#000000" />
<rect x="420" y="6" width="6" height="6" fill="#FFFFFF" />
<rect x="426" y="6" width="6" height="6" fill="#000000" />
<rect x="432" y="6" width="6" height="6" fill="#FFFFFF" />
<rect x="438" y="6" width="6" height="6" fill="#000000" />
<rect x="444" y="6" width="6" height="6" fill="#000000" />
<rect x="450" y="6" width="6" height="6" fill="#000000" />
<rect x="456" y="6" width="6" height="6" fill="#FFFFFF" />
<rect x="462" y="6" width="6" height="6" fill="#000000" />
<rect x="468" y="6" width="6" height="6" fill="#FFFFFF" />
<rect x="474" y="6" width="6" height="6" fill="#000000" />
<rect x="480" y="6" width="6" height="6" fill="#000000" />
<rect x="486" y="6" width="6" height="6" fill="#000000" />
<rect x="492" y="6" width="6" height="6" fill="#FFFFFF" />
<rect x="498" y="6" width="6" height="6" fill="#000000" />
<rect x="504" y="6" width="6" height="6" fill="#FFFFFF" />
<rect x="510" y="6" width="6" height="6" fill="#000000" />
<rect x="516" y="6" width="6" height="6" fill="#000000" />
<rect x="522" y="6" width="6" height="6" fill="#000000" />
<rect x="528" y="6" width="6" height="6" fill="#000000" />
<rect x="534" y="6" width="6" height="6" fill="#000000" />
<rect x="540" y="6" width="6" height="6" fill="#FFFFFF" />
<rect x="546" y="6" width="6" height="6" fill="#000000" />
<rect x="552" y="6" width="6" height="6" fill="#000000" />
<rect x="558" y="6" width="6" height="6" fill="#000000" />
<rect x="564" y="6" width="6" height="6" fill="#FFFFFF" />
<rect x="570" y="6" width="6" height="6" fill="#000000" />
<rect x="576" y="6" width="6" height="6" fill="#FFFFFF" />
<rect x="582" y="6" width="6" height="6" fill="#000000" />
<rect x="588" y="6" width="6" height="6" fill="#000000" />
<rect x="594" y="6" width="6" height="6" fill="#000000" />
<rect x="600" y="6" width="6" height="6" fill="#000000" />
<rect x="0" y="12" width="6" height="6" fill="#FFFFFF" />
<rect x="6" y="12" width="6" height="6" fill="#FFFFFF" />
<rect x="12" y="12" width="6" height="6" fill="#FFFFFF" />
<rect x="18" y="12" width="6" height="6" fill="#FFFFFF" />
<rect x="24" y="12" width="6" height="6" fill="#000000" />
<rect x="30" y="12" width="6" height="6" fill="#000000" />
<rect x="36" y="12" width="6" height="6" fill="#FFFFFF" />
<rect x="42" y="12" width="6" height="6" fill="#000000" />
<rect x="48" y="12" width="6" height="6" fill="#000000" />
<rect x="54" y="12" width="6" height="6" fill="#000000" />
<rect x="60" y="12" width="6" height="6" fill="#000000" />
<rect x="66" y="12" width="6" height="6" fill="#FFFFFF" />
<rect x="72" y="12" width="6" height="6" fill="#FFFFFF" />
<rect x="78" y="12" width="6" height="6" fill="#FFFFFF" />
<rect x="84" y="12" width="6" height="6" fill="#FFFFFF" />
<rect x="90" y="12" width="6" height="6" fill="#FFFFFF" />
<rect x="96" y="12" width="6" height="6" fill="#000000" />
<rect x="102" y="12" width="6" height="6" fill="#000000" />
<rect x="108" y="12" width="6" height="6" fill="#000000" />
<rect x="114" y="12" width="6" height="6" fill="#FFFFFF" />
<rect x="120" y="12" width="6" height="6" fill="#000000" />
<rect x="126" y="12" width="6" height="6" fill="#000000" />
<rect x="132" y="12" width="6" height="6" fill="#000000" />
<rect x="138" y="12" width="6" height="6" fill="#000000" />
<rect x="144" y="12" width="6" height="6" fill="#000000" />
<rect x="150" y="12" width="6" height="6" fill="#000000" />
<rect x="156" y="12" width="6" height="6" fill="#000000" />
<rect x="162" y="12" width="6" height="6" fill="#FFFFFF" />
<rect x="168" y="12" width="6" height="6" fill="#FFFFFF" />
<rect x="174" y="12" width="6" height="6" fill="#FFFFFF" />
<rect x="180" y="12" width="6" height="6" fill="#000000" />
<rect x="186" y="12" width="6" height="6" fill="#000000" />
<rect x="192" y="12" width="6" height="6" fill="#FFFFFF" />
<rect x="198" y="12" width="6" height="6" fill="#FFFFFF" />
<rect x="204" y="12" width="6" height="6" fill="#FFFFFF" />
<rect x="210" y="12" width="6" height="6" fill="#FFFFFF" />
<rect x="216" y="12" width="6" height="6" fill="#000000" />
<rect x="222" y="12" width="6" height="6" fill="#000000" />
<rect x="228" y="12" width="6" height="6" fill="#FFFFFF" />
<rect x="234" y="12" width="6" height="6" fill="#FFFFFF" />
<rect x="240" y="12" width="6" height="6" fill="#FFFFFF" />
<rect x="246" y="12" width="6" height="6" fill="#FFFFFF" />
<rect x="252" y="12" width="6" height="6" fill="#FFFFFF" />
<rect x="258" y="12" width="6" height="6" fill="#000000" />
<rect x="264" y="12" width="6" height="6" fill="#FFFFFF" />
<rect x="270" y="12" width="6" height="6" fill="#000000" />
<rect x="276" y="12" width="6" height="6" fill="#000000" />
<rect x="282" y="12" width="6" height="6" fill="#000000" />
<rect x="288" y="12" width="6" height="6" fill="#000000" />
<rect x="294" y="12" width="6" height="6" fill="#FFFFFF" />
<rect x="300" y="12" width="6" height="6" fill="#FFFFFF" />
<rect x="306" y="12" width="6" height="6" fill="#FFFFFF" />
<rect x="312" y="12" width="6" height="6" fill="#FFFFFF" />
<rect x="318" y="12" width="6" height="6" fill="#000000" />
<rect x="324" y="12" width="6" height="6" fill="#000000" />
<rect x="330" y="12" width="6" height="6" fill="#000000" />
<rect x="336" y="12" width="6" height="6" fill="#000000" />
<rect x="342" y="12" width="6" height="6" fill="#000000" />
<rect x="348" y="12" width="6" height="6" fill="#FFFFFF" />
<rect x="354" y="12" width="6" height="6" fill="#000000" />
<rect x="360" y="12" width="6" height="6" fill="#FFFFFF" />
<rect x="366" y="12" width="6" height="6" fill="#000000" />
<rect x="372" y="12" width="6" height="6" fill="#000000" />
<rect x="378" y="12" width="6" height="6" fill="#000000" />
<rect x="384" y="12" width="6" height="6" fill="#FFFFFF" />
<rect x="390" y="12" width="6" height="6" fill="#000000" />
<rect x="396" y="12" width="6" height="6" fill="#FFFFFF" />
<rect x="402" y="12" width="6" height="6" fill="#000000" />
<rect x="408" y="12" width="6" height="6" fill="#000000" />
<rect x="414" y="12" width="6" height="6" fill="#000000" />
<rect x="420" y="12" width="6" height="6" fill="#FFFFFF" />
<rect x="426" y="12" width="6" height="6" fill="#000000" />
<rect x="432" y="12" width="6" height="6" fill="#FFFFFF" />
<rect x="438" y="12" width="6" height="6" fill="#FFFFFF" />
<rect x="444" y="12" width="6" height="6" fill="#FFFFFF" />
<rect x="450" y="12" width="6" height="6" fill="#FFFFFF" />
<rect x="456" y="12" width="6" height="6" fill="#FFFFFF" />
<rect x="462" y="12" width="6" height="6" fill="#000000" />
<rect x="468" y="12" width="6" height="6" fill="#FFFFFF" />
<rect x="474" y="12" width="6" height="6" fill="#000000" />
<rect x="480" y="12" width="6" height="6" fill="#000000" />
<rect x="486" y="12" width="6" height="6" fill="#000000" />
<rect x="492" y="12" width="6" height="6" fill="#FFFFFF" />
<rect x="498" y="12" width="6" height="6" fill="#000000" />
<rect x="504" y="12" width="6" height="6" fill="#FFFFFF" />
<rect x="510" y="12" width="6" height="6" fill="#FFFFFF" />
<rect x="516" y="12" width="6" height="6" fill="#FFFFFF" />
<rect x="522" y="12" width="6" height="6" fill="#000000" />
<rect x="528" y="12" width="6" height="6" fill="#000000" />
<rect x="534" y="12" width="6" height="6" fill="#000000" />
<rect x="540" y="12" width="6" height="6" fill="#FFFFFF" />
<rect x="546" y="12" width="6" height="6" fill="#FFFFFF" />
<rect x="552" y="12" width="6" height="6" fill="#FFFFFF" />
<rect x="558" y="12" width="6" height="6" fill="#FFFFFF" />
<rect x="564" y="12" width="6" height="6" fill="#000000" />
<rect x="570" y="12" width="6" height="6" fill="#000000" />
<rect x="576" y="12" width="6" height="6" fill="#000000" />
<rect x="582" y="12" width="6" height="6" fill="#FFFFFF" />
<rect x="588" y="12" width="6" height="6" fill="#FFFFFF" />
<rect x="594" y="12" width="6" height="6" fill="#FFFFFF" />
<rect x="600" y="12" width="6" height="6" fill="#000000" />
<rect x="0" y="18" width="6" height="6" fill="#FFFFFF" />
<rect x="6" y="18" width="6" height="6" fill="#000000" />
<rect x="12" y="18" width="6" height="6" fill="#000000" />
<rect x="18" y="18" width="6" height="6" fill="#000000" />
<rect x="24" y="18" width="6" height="6" fill="#000000" />
<rect x="30" y="18" width="6" height="6" fill="#000000" />
<rect x="36" y="18" width="6" height="6" fill="#FFFFFF" />
<rect x="42" y="18" width="6" height="6" fill="#000000" />
<rect x="48" y="18" width="6" height="6" fill="#000000" />
<rect x="54" y="18" width="6" height="6" fill="#000000" />
<rect x="60" y="18" width="6" height="6" fill="#000000" />
<rect x="66" y="18" width="6" height="6" fill="#FFFFFF" />
<rect x="72" y="18" width="6" height="6" fill="#000000" />
<rect x="78" y="18" width="6" height="6" fill="#000000" />
<rect x="84" y="18" width="6" height="6" fill="#000000" />
<rect x="90" y="18" width="6" height="6" fill="#FFFFFF" />
<rect x="96" y="18" width="6" height="6" fill="#000000" />
<rect x="102" y="18" width="6" height="6" fill="#000000" />
<rect x="108" y="18" width="6" height="6" fill="#000000" />
<rect x="114" y="18" width="6" height="6" fill="#FFFFFF" />
<rect x="120" y="18" width="6" height="6" fill="#000000" />
<rect x="126" y="18" width="6" height="6" fill="#000000" />
<rect x="132" y="18" width="6" height="6" fill="#000000" />
<rect x="138" y="18" width="6" height="6" fill="#000000" />
<rect x="144" y="18" width="6" height="6" fill="#000000" />
<rect x="150" y="18" width="6" height="6" fill="#000000" />
<rect x="156" y="18" width="6" height="6" fill="#000000" />
<rect x="162" y="18" width="6" height="6" fill="#000000" />
<rect x="168" y="18" width="6" height="6" fill="#000000" />
<rect x="174" y="18" width="6" height="6" fill="#000000" />
<rect x="180" y="18" width="6" height="6" fill="#FFFFFF" />
<rect x="186" y="18" width="6" height="6" fill="#000000" />
<rect x="192" y="18" width="6" height="6" fill="#FFFFFF" />
<rect x="198" y="18" width="6" height="6" fill="#000000" />
<rect x="204" y="18" width="6" height="6" fill="#000000" />
<rect x="210" y="18" width="6" height="6" fill="#000000" />
<rect x="216" y="18" width="6" height="6" fill="#000000" />
<rect x="222" y="18" width="6" height="6" fill="#000000" />
<rect x="228" y="18" width="6" height="6" fill="#FFFFFF" />
<rect x="234" y="18" width="6" height="6" fill="#000000" />
<rect x="240" y="18" width="6" height="6" fill="#000000" />
<rect x="246" y="18" width="6" height="6" fill="#000000" />
<rect x="252" y="18" width="6" height="6" fill="#FFFFFF" />
<rect x="258" y="18" width="6" height="6" fill="#000000" />
<rect x="264" y="18" width="6" height="6" fill="#FFFFFF" />
<rect x="270" y="18" width="6" height="6" fill="#000000" />
<rect x="276" y="18" width="6" height="6" fill="#000000" />
<rect x="282" y="18" width="6" height="6" fill="#000000" />
<rect x="288" y="18" width="6" height="6" fill="#000000" />
<rect x="294" y="18" width="6" height="6" fill="#FFFFFF" />
<rect x="300" y="18" width="6" height="6" fill="#000000" />
<rect x="306" y="18" width="6" height="6" fill="#000000" />
<rect x="312" y="18" width="6" height="6" fill="#000000" />
<rect x="318" y="18" width="6" height="6" fill="#000000" />
<rect x="324" y="18" width="6" height="6" fill="#000000" />
<rect x="330" y="18" width="6" height="6" fill="#000000" />
<rect x="336" y="18" width="6" height="6" fill="#000000" />
<rect x="342" y="18" width="6" height="6" fill="#000000" />
<rect x="348" y="18" width="6" height="6" fill="#FFFFFF" />
<rect x="354" y="18" width="6" height="6" fill="#000000" />
<rect x="360" y="18" width="6" height="6" fill="#FFFFFF" />
<rect x="366" y="18" width="6" height="6" fill="#000000" />
<rect x="372" y="18" width="6" height="6" fill="#000000" />
<rect x="378" y="18" width="6" height="6" fill="#000000" />
<rect x="384" y="18" width="6" height="6" fill="#FFFFFF" />
<rect x="390" y="18" width="6" height="6" fill="#000000" />
<rect x="396" y="18" width="6" height="6" fill="#000000" />
<rect x="402" y="18" width="6" height="6" fill="#FFFFFF" />
<rect x="408" y="18" width="6" height="6" fill="#000000" />
<rect x="414" y="18" width="6" height="6" fill="#FFFFFF" />
<rect x="420" y="18" width="6" height="6" fill="#000000" />
<rect x="426" y="18" width="6" height="6" fill="#000000" />
<rect x="432" y="18" width="6" height="6" fill="#FFFFFF" />
<rect x="438" y="18" width="6" height="6" fill="#000000" />
<rect x="444" y="18" width="6" height="6" fill="#000000" />
<rect x="450" y="18" width="6" height="6" fill="#000000" />
<rect x="456" y="18" width="6" height="6" fill="#FFFFFF" />
<rect x="462" y="18" width="6" height="6" fill="#000000" />
<rect x="468" y="18" width="6" height="6" fill="#FFFFFF" />
<rect x="474" y="18" width="6" height="6" fill="#000000" />
<rect x="480" y="18" width="6" height="6" fill="#000000" />
<rect x="486" y="18" width="6" height="6" fill="#000000" />
<rect x="492" y="18" width="6" height="6" fill="#FFFFFF" />
<rect x="498" y="18" width="6" height="6" fill="#000000" />
<rect x="504" y="18" width="6" height="6" fill="#FFFFFF" />
<rect x="510" y="18" width="6" height="6" fill="#000000" />
<rect x="516" y="18" width="6" height="6" fill="#000000" />
<rect x="522" y="18" width="6" height="6" fill="#000000" />
<rect x="528" y="18" width="6" height="6" fill="#000000" />
<rect x="534" y="18" width="6" height="6" fill="#000000" />
<rect x="540" y="18" width="6" height="6" fill="#FFFFFF" />
<rect x="546" y="18" width="6" height="6" fill="#000000" />
<rect x="552" y="18" width="6" height="6" fill="#000000" />
<rect x="558" y="18" width="6" height="6" fill="#000000" />
<rect x="564" y="18" width="6" height="6" fill="#FFFFFF" />
<rect x="570" y="18" width="6" height="6" fill="#000000" />
<rect x="576" y="18" width="6" height="6" fill="#000000" />
<rect x="582" y="18" width="6" height="6" fill="#000000" />
<rect x="588" y="18" width="6" height="6" fill="#000000" />
<rect x="594" y="18" width="6" height="6" fill="#000000" />
<rect x="600" y="18" width="6" height="6" fill="#FFFFFF" />
<rect x="0" y="24" width="6" height="6" fill="#FFFFFF" />
<rect x="6" y="24" width="6" height="6" fill="#000000" />
<rect x="12" y="24" width="6" height="6" fill="#000000" />
<rect x="18" y="24" width="6" height="6" fill="#000000" />
<rect x="24" y="24" width="6" height="6" fill="#000000" />
<rect x="30" y="24" width="6" height="6" fill="#000000" />
<rect x="36" y="24" width="6" height="6" fill="#FFFFFF" />
<rect x="42" y="24" width="6" height="6" fill="#FFFFFF" />
<rect x="48" y="24" width="6" height="6" fill="#FFFFFF" />
<rect x="54" y="24" width="6" height="6" fill="#FFFFFF" />
<rect x="60" y="24" width="6" height="6" fill="#000000" />
<rect x="66" y="24" width="6" height="6" fill="#FFFFFF" />
<rect x="72" y="24" width="6" height="6" fill="#000000" />
<rect x="78" y="24" width="6" height="6" fill="#000000" />
<rect x="84" y="24" width="6" height="6" fill="#000000" />
<rect x="90" y="24" width="6" height="6" fill="#FFFFFF" />
<rect x="96" y="24" width="6" height="6" fill="#000000" />
<rect x="102" y="24" width="6" height="6" fill="#000000" />
<rect x="108" y="24" width="6" height="6" fill="#000000" />
<rect x="114" y="24" width="6" height="6" fill="#FFFFFF" />
<rect x="120" y="24" width="6" height="6" fill="#000000" />
<rect x="126" y="24" width="6" height="6" fill="#000000" />
<rect x="132" y="24" width="6" height="6" fill="#000000" />
<rect x="138" y="24" width="6" height="6" fill="#000000" />
<rect x="144" y="24" width="6" height="6" fill="#000000" />
<rect x="150" y="24" width="6" height="6" fill="#000000" />
<rect x="156" y="24" width="6" height="6" fill="#FFFFFF" />
<rect x="162" y="24" width="6" height="6" fill="#FFFFFF" />
<rect x="168" y="24" width="6" height="6" fill="#FFFFFF" />
<rect x="174" y="24" width="6" height="6" fill="#FFFFFF" />
<rect x="180" y="24" width="6" height="6" fill="#000000" />
<rect x="186" y="24" width="6" height="6" fill="#000000" />
<rect x="192" y="24" width="6" height="6" fill="#FFFFFF" />
<rect x="198" y="24" width="6" height="6" fill="#000000" />
<rect x="204" y="24" width="6" height="6" fill="#000000" />
<rect x="210" y="24" width="6" height="6" fill="#000000" />
<rect x="216" y="24" width="6" height="6" fill="#000000" />
<rect x="222" y="24" width="6" height="6" fill="#000000" />
<rect x="228" y="24" width="6" height="6" fill="#FFFFFF" />
<rect x="234" y="24" width="6" height="6" fill="#000000" />
<rect x="240" y="24" width="6" height="6" fill="#000000" />
<rect x="246" y="24" width="6" height="6" fill="#000000" />
<rect x="252" y="24" width="6" height="6" fill="#FFFFFF" />
<rect x="258" y="24" width="6" height="6" fill="#000000" />
<rect x="264" y="24" width="6" height="6" fill="#000000" />
<rect x="270" y="24" width="6" height="6" fill="#FFFFFF" />
<rect x="276" y="24" width="6" height="6" fill="#FFFFFF" />
<rect x="282" y="24" width="6" height="6" fill="#FFFFFF" />
<rect x="288" y="24" width="6" height="6" fill="#000000" />
<rect x="294" y="24" width="6" height="6" fill="#FFFFFF" />
<rect x="300" y="24" width="6" height="6" fill="#FFFFFF" />
<rect x="306" y="24" width="6" height="6" fill="#FFFFFF" />
<rect x="312" y="24" width="6" height="6" fill="#FFFFFF" />
<rect x="318" y="24" width="6" height="6" fill="#FFFFFF" />
<rect x="324" y="24" width="6" height="6" fill="#000000" />
<rect x="330" y="24" width="6" height="6" fill="#000000" />
<rect x="336" y="24" width="6" height="6" fill="#000000" />
<rect x="342" y="24" width="6" height="6" fill="#000000" />
<rect x="348" y="24" width="6" height="6" fill="#FFFFFF" />
<rect x="354" y="24" width="6" height="6" fill="#000000" />
<rect x="360" y="24" width="6" height="6" fill="#FFFFFF" />
<rect x="366" y="24" width="6" height="6" fill="#000000" />
<rect x="372" y="24" width="6" height="6" fill="#000000" />
<rect x="378" y="24" width="6" height="6" fill="#000000" />
<rect x="384" y="24" width="6" height="6" fill="#FFFFFF" />
<rect x="390" y="24" width="6" height="6" fill="#000000" />
<rect x="396" y="24" width="6" height="6" fill="#000000" />
<rect x="402" y="24" width="6" height="6" fill="#000000" />
<rect x="408" y="24" width="6" height="6" fill="#FFFFFF" />
<rect x="414" y="24" width="6" height="6" fill="#000000" />
<rect x="420" y="24" width="6" height="6" fill="#000000" />
<rect x="426" y="24" width="6" height="6" fill="#000000" />
<rect x="432" y="24" width="6" height="6" fill="#FFFFFF" />
<rect x="438" y="24" width="6" height="6" fill="#000000" />
<rect x="444" y="24" width="6" height="6" fill="#000000" />
<rect x="450" y="24" width="6" height="6" fill="#000000" />
<rect x="456" y="24" width="6" height="6" fill="#FFFFFF" />
<rect x="462" y="24" width="6" height="6" fill="#000000" />
<rect x="468" y="24" width="6" height="6" fill="#FFFFFF" />
<rect x="474" y="24" width="6" height="6" fill="#FFFFFF" />
<rect x="480" y="24" width="6" height="6" fill="#FFFFFF" />
<rect x="486" y="24" width="6" height="6" fill="#FFFFFF" />
<rect x="492" y="24" width="6" height="6" fill="#000000" />
<rect x="498" y="24" width="6" height="6" fill="#000000" />
<rect x="504" y="24" width="6" height="6" fill="#FFFFFF" />
<rect x="510" y="24" width="6" height="6" fill="#FFFFFF" />
<rect x="516" y="24" width="6" height="6" fill="#FFFFFF" />
<rect x="522" y="24" width="6" height="6" fill="#FFFFFF" />
<rect x="528" y="24" width="6" height="6" fill="#FFFFFF" />
<rect x="534" y="24" width="6" height="6" fill="#000000" />
<rect x="540" y="24" width="6" height="6" fill="#FFFFFF" />
<rect x="546" y="24" width="6" height="6" fill="#000000" />
<rect x="552" y="24" width="6" height="6" fill="#000000" />
<rect x="558" y="24" width="6" height="6" fill="#000000" />
<rect x="564" y="24" width="6" height="6" fill="#FFFFFF" />
<rect x="570" y="24" width="6" height="6" fill="#000000" />
<rect x="576" y="24" width="6" height="6" fill="#FFFFFF" />
<rect x="582" y="24" width="6" height="6" fill="#FFFFFF" />
<rect x="588" y="24" width="6" height="6" fill="#FFFFFF" />
<rect x="594" y="24" width="6" height="6" fill="#FFFFFF" />
<rect x="600" y="24" width="6" height="6" fill="#000000" />
</svg>