<?xml version="1.0" encoding="UTF-8" ?>
<svg version="1.1" width="535" height="25" xmlns="http://www.w3.org/2000/svg" shape-rendering="crispEdges">
<rect x="0" y="0" width="5" height="5" fill="#FFFFFF" />
<rect x="5" y="0" width="5" height="5" fill="#FFFFFF" />
<rect x="10" y="0" width="5" height="5" fill="#FFFFFF" />
<rect x="15" y="0" width="5" height="5" fill="#FFFFFF" />
<rect x="20" y="0" width="5" height="5" fill="#222034" />
<rect x="25" y="0" width="5" height="5" fill="#222034" />
<rect x="30" y="0" width="5" height="5" fill="#FFFFFF" />
<rect x="35" y="0" width="5" height="5" fill="#222034" />
<rect x="40" y="0" width="5" height="5" fill="#222034" />
<rect x="45" y="0" width="5" height="5" fill="#222034" />
<rect x="50" y="0" width="5" height="5" fill="#222034" />
<rect x="55" y="0" width="5" height="5" fill="#222034" />
<rect x="60" y="0" width="5" height="5" fill="#FFFFFF" />
<rect x="65" y="0" width="5" height="5" fill="#FFFFFF" />
<rect x="70" y="0" width="5" height="5" fill="#FFFFFF" />
<rect x="75" y="0" width="5" height="5" fill="#222034" />
<rect x="80" y="0" width="5" height="5" fill="#222034" />
<rect x="85" y="0" width="5" height="5" fill="#FFFFFF" />
<rect x="90" y="0" width="5" height="5" fill="#222034" />
<rect x="95" y="0" width="5" height="5" fill="#222034" />
<rect x="100" y="0" width="5" height="5" fill="#222034" />
<rect x="105" y="0" width="5" height="5" fill="#FFFFFF" />
<rect x="110" y="0" width="5" height="5" fill="#222034" />
<rect x="115" y="0" width="5" height="5" fill="#222034" />
<rect x="120" y="0" width="5" height="5" fill="#222034" />
<rect x="125" y="0" width="5" height="5" fill="#222034" />
<rect x="130" y="0" width="5" height="5" fill="#222034" />
<rect x="135" y="0" width="5" height="5" fill="#FFFFFF" />
<rect x="140" y="0" width="5" height="5" fill="#FFFFFF" />
<rect x="145" y="0" width="5" height="5" fill="#FFFFFF" />
<rect x="150" y="0" width="5" height="5" fill="#FFFFFF" />
<rect x="155" y="0" width="5" height="5" fill="#222034" />
<rect x="160" y="0" width="5" height="5" fill="#FFFFFF" />
<rect x="165" y="0" width="5" height="5" fill="#FFFFFF" />
<rect x="170" y="0" width="5" height="5" fill="#FFFFFF" />
<rect x="175" y="0" width="5" height="5" fill="#FFFFFF" />
<rect x="180" y="0" width="5" height="5" fill="#222034" />
<rect x="185" y="0" width="5" height="5" fill="#222034" />
<rect x="190" y="0" width="5" height="5" fill="#222034" />
<rect x="195" y="0" width="5" height="5" fill="#FFFFFF" />
<rect x="200" y="0" width="5" height="5" fill="#FFFFFF" />
<rect x="205" y="0" width="5" height="5" fill="#FFFFFF" />
<rect x="210" y="0" width="5" height="5" fill="#222034" />
<rect x="215" y="0" width="5" height="5" fill="#222034" />
<rect x="220" y="0" width="5" height="5" fill="#222034" />
<rect x="225" y="0" width="5" height="5" fill="#FFFFFF" />
<rect x="230" y="0" width="5" height="5" fill="#FFFFFF" />
<rect x="235" y="0" width="5" height="5" fill="#FFFFFF" />
<rect x="240" y="0" width="5" height="5" fill="#222034" />
<rect x="245" y="0" width="5" height="5" fill="#FFFFFF" />
<rect x="250" y="0" width="5" height="5" fill="#FFFFFF" />
<rect x="255" y="0" width="5" height="5" fill="#FFFFFF" />
<rect x="260" y="0" width="5" height="5" fill="#FFFFFF" />
<rect x="265" y="0" width="5" height="5" fill="#FFFFFF" />
<rect x="270" y="0" width="5" height="5" fill="#222034" />
<rect x="275" y="0" width="5" height="5" fill="#222034" />
<rect x="280" y="0" width="5" height="5" fill="#222034" />
<rect x="285" y="0" width="5" height="5" fill="#222034" />
<rect x="290" y="0" width="5" height="5" fill="#FFFFFF" />
<rect x="295" y="0" width="5" height="5" fill="#222034" />
<rect x="300" y="0" width="5" height="5" fill="#FFFFFF" />
<rect x="305" y="0" width="5" height="5" fill="#FFFFFF" />
<rect x="310" y="0" width="5" height="5" fill="#FFFFFF" />
<rect x="315" y="0" width="5" height="5" fill="#FFFFFF" />
<rect x="320" y="0" width="5" height="5" fill="#222034" />
<rect x="325" y="0" width="5" height="5" fill="#222034" />
<rect x="330" y="0" width="5" height="5" fill="#FFFFFF" />
<rect x="335" y="0" width="5" height="5" fill="#222034" />
<rect x="340" y="0" width="5" height="5" fill="#222034" />
<rect x="345" y="0" width="5" height="5" fill="#222034" />
<rect x="350" y="0" width="5" height="5" fill="#FFFFFF" />
<rect x="355" y="0" width="5" height="5" fill="#222034" />
<rect x="360" y="0" width="5" height="5" fill="#222034" />
<rect x="365" y="0" width="5" height="5" fill="#FFFFFF" />
<rect x="370" y="0" width="5" height="5" fill="#FFFFFF" />
<rect x="375" y="0" width="5" height="5" fill="#FFFFFF" />
<rect x="380" y="0" width="5" height="5" fill="#222034" />
<rect x="385" y="0" width="5" height="5" fill="#222034" />
<rect x="390" y="0" width="5" height="5" fill="#FFFFFF" />
<rect x="395" y="0" width="5" height="5" fill="#222034" />
<rect x="400" y="0" width="5" height="5" fill="#222034" />
<rect x="405" y="0" width="5" height="5" fill="#222034" />
<rect x="410" y="0" width="5" height="5" fill="#FFFFFF" />
<rect x="415" y="0" width="5" height="5" fill="#222034" />
<rect x="420" y="0" width="5" height="5" fill="#FFFFFF" />
<rect x="425" y="0" width="5" height="5" fill="#FFFFFF" />
<rect x="430" y="0" width="5" height="5" fill="#FFFFFF" />
<rect x="435" y="0" width="5" height="5" fill="#FFFFFF" />
<rect x="440" y="0" width="5" height="5" fill="#222034" />
<rect x="445" y="0" width="5" height="5" fill="#222034" />
<rect x="450" y="0" width="5" height="5" fill="#FFFFFF" />
<rect x="455" y="0" width="5" height="5" fill="#FFFFFF" />
<rect x="460" y="0" width="5" height="5" fill="#FFFFFF" />
<rect x="465" y="0" width="5" height="5" fill="#FFFFFF" />
<rect x="470" y="0" width="5" height="5" fill="#FFFFFF" />
<rect x="475" y="0" width="5" height="5" fill="#222034" />
<rect x="480" y="0" width="5" height="5" fill="#FFFFFF" />
<rect x="485" y="0" width="5" height="5" fill="#FFFFFF" />
<rect x="490" y="0" width="5" height="5" fill="#FFFFFF" />
<rect x="495" y="0" width="5" height="5" fill="#FFFFFF" />
<rect x="500" y="0" width="5" height="5" fill="#222034" />
<rect x="505" y="0" width="5" height="5" fill="#222034" />
<rect x="510" y="0" width="5" height="5" fill="#222034" />
<rect x="515" y="0" width="5" height="5" fill="#FFFFFF" />
<rect x="520" y="0" width="5" height="5" fill="#FFFFFF" />
<rect x="525" y="0" width="5" height="5" fill="#FFFFFF" />
<rect x="530" y="0" width="5" height="5" fill="#FFFFFF" />
<rect x="0" y="5" width="5" height="5" fill="#FFFFFF" />
<rect x="5" y="5" width="5" height="5" fill="#222034" />
<rect x="10" y="5" width="5" height="5" fill="#222034" />
<rect x="15" y="5" width="5" height="5" fill="#222034" />
<rect x="20" y="5" width="5" height="5" fill="#FFFFFF" />
<rect x="25" y="5" width="5" height="5" fill="#222034" />
<rect x="30" y="5" width="5" height="5" fill="#FFFFFF" />
<rect x="35" y="5" width="5" height="5" fill="#222034" />
<rect x="40" y="5" width="5" height="5" fill="#222034" />
<rect x="45" y="5" width="5" height="5" fill="#222034" />
<rect x="50" y="5" width="5" height="5" fill="#222034" />
<rect x="55" y="5" width="5" height="5" fill="#FFFFFF" />
<rect x="60" y="5" width="5" height="5" fill="#222034" />
<rect x="65" y="5" width="5" height="5" fill="#222034" />
<rect x="70" y="5" width="5" height="5" fill="#222034" />
<rect x="75" y="5" width="5" height="5" fill="#FFFFFF" />
<rect x="80" y="5" width="5" height="5" fill="#222034" />
<rect x="85" y="5" width="5" height="5" fill="#222034" />
<rect x="90" y="5" width="5" height="5" fill="#FFFFFF" />
<rect x="95" y="5" width="5" height="5" fill="#222034" />
<rect x="100" y="5" width="5" height="5" fill="#FFFFFF" />
<rect x="105" y="5" width="5" height="5" fill="#222034" />
<rect x="110" y="5" width="5" height="5" fill="#222034" />
<rect x="115" y="5" width="5" height="5" fill="#222034" />
<rect x="120" y="5" width="5" height="5" fill="#222034" />
<rect x="125" y="5" width="5" height="5" fill="#222034" />
<rect x="130" y="5" width="5" height="5" fill="#FFFFFF" />
<rect x="135" y="5" width="5" height="5" fill="#222034" />
<rect x="140" y="5" width="5" height="5" fill="#222034" />
<rect x="145" y="5" width="5" height="5" fill="#222034" />
<rect x="150" y="5" width="5" height="5" fill="#222034" />
<rect x="155" y="5" width="5" height="5" fill="#222034" />
<rect x="160" y="5" width="5" height="5" fill="#FFFFFF" />
<rect x="165" y="5" width="5" height="5" fill="#222034" />
<rect x="170" y="5" width="5" height="5" fill="#222034" />
<rect x="175" y="5" width="5" height="5" fill="#222034" />
<rect x="180" y="5" width="5" height="5" fill="#FFFFFF" />
<rect x="185" y="5" width="5" height="5" fill="#222034" />
<rect x="190" y="5" width="5" height="5" fill="#FFFFFF" />
<rect x="195" y="5" width="5" height="5" fill="#222034" />
<rect x="200" y="5" width="5" height="5" fill="#222034" />
<rect x="205" y="5" width="5" height="5" fill="#222034" />
<rect x="210" y="5" width="5" height="5" fill="#FFFFFF" />
<rect x="215" y="5" width="5" height="5" fill="#222034" />
<rect x="220" y="5" width="5" height="5" fill="#FFFFFF" />
<rect x="225" y="5" width="5" height="5" fill="#222034" />
<rect x="230" y="5" width="5" height="5" fill="#222034" />
<rect x="235" y="5" width="5" height="5" fill="#222034" />
<rect x="240" y="5" width="5" height="5" fill="#222034" />
<rect x="245" y="5" width="5" height="5" fill="#FFFFFF" />
<rect x="250" y="5" width="5" height="5" fill="#222034" />
<rect x="255" y="5" width="5" height="5" fill="#222034" />
<rect x="260" y="5" width="5" height="5" fill="#222034" />
<rect x="265" y="5" width="5" height="5" fill="#222034" />
<rect x="270" y="5" width="5" height="5" fill="#222034" />
<rect x="275" y="5" width="5" height="5" fill="#222034" />
<rect x="280" y="5" width="5" height="5" fill="#222034" />
<rect x="285" y="5" width="5" height="5" fill="#222034" />
<rect x="290" y="5" width="5" height="5" fill="#FFFFFF" />
<rect x="295" y="5" width="5" height="5" fill="#222034" />
<rect x="300" y="5" width="5" height="5" fill="#FFFFFF" />
<rect x="305" y="5" width="5" height="5" fill="#222034" />
<rect x="310" y="5" width="5" height="5" fill="#222034" />
<rect x="315" y="5" width="5" height="5" fill="#222034" />
<rect x="320" y="5" width="5" height="5" fill="#FFFFFF" />
<rect x="325" y="5" width="5" height="5" fill="#222034" />
<rect x="330" y="5" width="5" height="5" fill="#FFFFFF" />
<rect x="335" y="5" width="5" height="5" fill="#222034" />
<rect x="340" y="5" width="5" height="5" fill="#222034" />
<rect x="345" y="5" width="5" height="5" fill="#222034" />
<rect x="350" y="5" width="5" height="5" fill="#FFFFFF" />
<rect x="355" y="5" width="5" height="5" fill="#222034" />
<rect x="360" y="5" width="5" height="5" fill="#FFFFFF" />
<rect x="365" y="5" width="5" height="5" fill="#222034" />
<rect x="370" y="5" width="5" height="5" fill="#222034" />
<rect x="375" y="5" width="5" height="5" fill="#222034" />
<rect x="380" y="5" width="5" height="5" fill="#FFFFFF" />
<rect x="385" y="5" width="5" height="5" fill="#222034" />
<rect x="390" y="5" width="5" height="5" fill="#222034" />
<rect x="395" y="5" width="5" height="5" fill="#FFFFFF" />
<rect x="400" y="5" width="5" height="5" fill="#222034" />
<rect x="405" y="5" width="5" height="5" fill="#FFFFFF" />
<rect x="410" y="5" width="5" height="5" fill="#222034" />
<rect x="415" y="5" width="5" height="5" fill="#222034" />
<rect x="420" y="5" width="5" height="5" fill="#FFFFFF" />
<rect x="425" y="5" width="5" height="5" fill="#222034" />
<rect x="430" y="5" width="5" height="5" fill="#222034" />
<rect x="435" y="5" width="5" height="5" fill="#222034" />
<rect x="440" y="5" width="5" height="5" fill="#FFFFFF" />
<rect x="445" y="5" width="5" height="5" fill="#222034" />
<rect x="450" y="5" width="5" height="5" fill="#FFFFFF" />
<rect x="455" y="5" width="5" height="5" fill="#222034" />
<rect x="460" y="5" width="5" height="5" fill="#222034" />
<rect x="465" y="5" width="5" height="5" fill="#222034" />
<rect x="470" y="5" width="5" height="5" fill="#222034" />
<rect x="475" y="5" width="5" height="5" fill="#222034" />
<rect x="480" y="5" width="5" height="5" fill="#FFFFFF" />
<rect x="485" y="5" width="5" height="5" fill="#222034" />
<rect x="490" y="5" width="5" height="5" fill="#222034" />
<rect x="495" y="5" width="5" height="5" fill="#222034" />
<rect x="500" y="5" width="5" height="5" fill="#FFFFFF" />
<rect x="505" y="5" width="5" height="5" fill="#222034" />
<rect x="510" y="5" width="5" height="5" fill="#FFFFFF" />
<rect x="515" y="5" width="5" height="5" fill="#222034" />
<rect x="520" y="5" width="5" height="5" fill="#222034" />
<rect x="525" y="5" width="5" height="5" fill="#222034" />
<rect x="530" y="5" width="5" height="5" fill="#222034" />
<rect x="0" y="10" width="5" height="5" fill="#FFFFFF" />
<rect x="5" y="10" width="5" height="5" fill="#FFFFFF" />
<rect x="10" y="10" width="5" height="5" fill="#FFFFFF" />
<rect x="15" y="10" width="5" height="5" fill="#FFFFFF" />
<rect x="20" y="10" width="5" height="5" fill="#222034" />
<rect x="25" y="10" width="5" height="5" fill="#222034" />
<rect x="30" y="10" width="5" height="5" fill="#FFFFFF" />
<rect x="35" y="10" width="5" height="5" fill="#222034" />
<rect x="40" y="10" width="5" height="5" fill="#222034" />
<rect x="45" y="10" width="5" height="5" fill="#222034" />
<rect x="50" y="10" width="5" height="5" fill="#222034" />
<rect x="55" y="10" width="5" height="5" fill="#FFFFFF" />
<rect x="60" y="10" width="5" height="5" fill="#FFFFFF" />
<rect x="65" y="10" width="5" height="5" fill="#FFFFFF" />
<rect x="70" y="10" width="5" height="5" fill="#FFFFFF" />
<rect x="75" y="10" width="5" height="5" fill="#FFFFFF" />
<rect x="80" y="10" width="5" height="5" fill="#222034" />
<rect x="85" y="10" width="5" height="5" fill="#222034" />
<rect x="90" y="10" width="5" height="5" fill="#222034" />
<rect x="95" y="10" width="5" height="5" fill="#FFFFFF" />
<rect x="100" y="10" width="5" height="5" fill="#222034" />
<rect x="105" y="10" width="5" height="5" fill="#222034" />
<rect x="110" y="10" width="5" height="5" fill="#222034" />
<rect x="115" y="10" width="5" height="5" fill="#222034" />
<rect x="120" y="10" width="5" height="5" fill="#222034" />
<rect x="125" y="10" width="5" height="5" fill="#222034" />
<rect x="130" y="10" width="5" height="5" fill="#222034" />
<rect x="135" y="10" width="5" height="5" fill="#FFFFFF" />
<rect x="140" y="10" width="5" height="5" fill="#FFFFFF" />
<rect x="145" y="10" width="5" height="5" fill="#FFFFFF" />
<rect x="150" y="10" width="5" height="5" fill="#222034" />
<rect x="155" y="10" width="5" height="5" fill="#222034" />
<rect x="160" y="10" width="5" height="5" fill="#FFFFFF" />
<rect x="165" y="10" width="5" height="5" fill="#FFFFFF" />
<rect x="170" y="10" width="5" height="5" fill="#FFFFFF" />
<rect x="175" y="10" width="5" height="5" fill="#FFFFFF" />
<rect x="180" y="10" width="5" height="5" fill="#222034" />
<rect x="185" y="10" width="5" height="5" fill="#222034" />
<rect x="190" y="10" width="5" height="5" fill="#FFFFFF" />
<rect x="195" y="10" width="5" height="5" fill="#FFFFFF" />
<rect x="200" y="10" width="5" height="5" fill="#FFFFFF" />
<rect x="205" y="10" width="5" height="5" fill="#FFFFFF" />
<rect x="210" y="10" width="5" height="5" fill="#FFFFFF" />
<rect x="215" y="10" width="5" height="5" fill="#222034" />
<rect x="220" y="10" width="5" height="5" fill="#FFFFFF" />
<rect x="225" y="10" width="5" height="5" fill="#222034" />
<rect x="230" y="10" width="5" height="5" fill="#222034" />
<rect x="235" y="10" width="5" height="5" fill="#222034" />
<rect x="240" y="10" width="5" height="5" fill="#222034" />
<rect x="245" y="10" width="5" height="5" fill="#FFFFFF" />
<rect x="250" y="10" width="5" height="5" fill="#FFFFFF" />
<rect x="255" y="10" width="5" height="5" fill="#FFFFFF" />
<rect x="260" y="10" width="5" height="5" fill="#FFFFFF" />
<rect x="265" y="10" width="5" height="5" fill="#222034" />
<rect x="270" y="10" width="5" height="5" fill="#222034" />
<rect x="275" y="10" width="5" height="5" fill="#222034" />
<rect x="280" y="10" width="5" height="5" fill="#222034" />
<rect x="285" y="10" width="5" height="5" fill="#222034" />
<rect x="290" y="10" width="5" height="5" fill="#FFFFFF" />
<rect x="295" y="10" width="5" height="5" fill="#222034" />
<rect x="300" y="10" width="5" height="5" fill="#FFFFFF" />
<rect x="305" y="10" width="5" height="5" fill="#222034" />
<rect x="310" y="10" width="5" height="5" fill="#222034" />
<rect x="315" y="10" width="5" height="5" fill="#222034" />
<rect x="320" y="10" width="5" height="5" fill="#FFFFFF" />
<rect x="325" y="10" width="5" height="5" fill="#222034" />
<rect x="330" y="10" width="5" height="5" fill="#FFFFFF" />
<rect x="335" y="10" width="5" height="5" fill="#222034" />
<rect x="340" y="10" width="5" height="5" fill="#222034" />
<rect x="345" y="10" width="5" height="5" fill="#222034" />
<rect x="350" y="10" width="5" height="5" fill="#FFFFFF" />
<rect x="355" y="10" width="5" height="5" fill="#222034" />
<rect x="360" y="10" width="5" height="5" fill="#FFFFFF" />
<rect x="365" y="10" width="5" height="5" fill="#FFFFFF" />
<rect x="370" y="10" width="5" height="5" fill="#FFFFFF" />
<rect x="375" y="10" width="5" height="5" fill="#FFFFFF" />
<rect x="380" y="10" width="5" height="5" fill="#FFFFFF" />
<rect x="385" y="10" width="5" height="5" fill="#222034" />
<rect x="390" y="10" width="5" height="5" fill="#222034" />
<rect x="395" y="10" width="5" height="5" fill="#222034" />
<rect x="400" y="10" width="5" height="5" fill="#FFFFFF" />
<rect x="405" y="10" width="5" height="5" fill="#222034" />
<rect x="410" y="10" width="5" height="5" fill="#222034" />
<rect x="415" y="10" width="5" height="5" fill="#222034" />
<rect x="420" y="10" width="5" height="5" fill="#FFFFFF" />
<rect x="425" y="10" width="5" height="5" fill="#222034" />
<rect x="430" y="10" width="5" height="5" fill="#222034" />
<rect x="435" y="10" width="5" height="5" fill="#222034" />
<rect x="440" y="10" width="5" height="5" fill="#FFFFFF" />
<rect x="445" y="10" width="5" height="5" fill="#222034" />
<rect x="450" y="10" width="5" height="5" fill="#FFFFFF" />
<rect x="455" y="10" width="5" height="5" fill="#FFFFFF" />
<rect x="460" y="10" width="5" height="5" fill="#FFFFFF" />
<rect x="465" y="10" width="5" height="5" fill="#FFFFFF" />
<rect x="470" y="10" width="5" height="5" fill="#222034" />
<rect x="475" y="10" width="5" height="5" fill="#222034" />
<rect x="480" y="10" width="5" height="5" fill="#FFFFFF" />
<rect x="485" y="10" width="5" height="5" fill="#FFFFFF" />
<rect x="490" y="10" width="5" height="5" fill="#FFFFFF" />
<rect x="495" y="10" width="5" height="5" fill="#FFFFFF" />
<rect x="500" y="10" width="5" height="5" fill="#222034" />
<rect x="505" y="10" width="5" height="5" fill="#222034" />
<rect x="510" y="10" width="5" height="5" fill="#222034" />
<rect x="515" y="10" width="5" height="5" fill="#FFFFFF" />
<rect x="520" y="10" width="5" height="5" fill="#FFFFFF" />
<rect x="525" y="10" width="5" height="5" fill="#FFFFFF" />
<rect x="530" y="10" width="5" height="5" fill="#222034" />
<rect x="0" y="15" width="5" height="5" fill="#FFFFFF" />
<rect x="5" y="15" width="5" height="5" fill="#222034" />
<rect x="10" y="15" width="5" height="5" fill="#222034" />
<rect x="15" y="15" width="5" height="5" fill="#222034" />
<rect x="20" y="15" width="5" height="5" fill="#222034" />
<rect x="25" y="15" width="5" height="5" fill="#222034" />
<rect x="30" y="15" width="5" height="5" fill="#FFFFFF" />
<rect x="35" y="15" width="5" height="5" fill="#222034" />
<rect x="40" y="15" width="5" height="5" fill="#222034" />
<rect x="45" y="15" width="5" height="5" fill="#222034" />
<rect x="50" y="15" width="5" height="5" fill="#222034" />
<rect x="55" y="15" width="5" height="5" fill="#FFFFFF" />
<rect x="60" y="15" width="5" height="5" fill="#222034" />
<rect x="65" y="15" width="5" height="5" fill="#222034" />
<rect x="70" y="15" width="5" height="5" fill="#222034" />
<rect x="75" y="15" width="5" height="5" fill="#FFFFFF" />
<rect x="80" y="15" width="5" height="5" fill="#222034" />
<rect x="85" y="15" width="5" height="5" fill="#222034" />
<rect x="90" y="15" width="5" height="5" fill="#222034" />
<rect x="95" y="15" width="5" height="5" fill="#FFFFFF" />
<rect x="100" y="15" width="5" height="5" fill="#222034" />
<rect x="105" y="15" width="5" height="5" fill="#222034" />
<rect x="110" y="15" width="5" height="5" fill="#222034" />
<rect x="115" y="15" width="5" height="5" fill="#222034" />
<rect x="120" y="15" width="5" height="5" fill="#222034" />
<rect x="125" y="15" width="5" height="5" fill="#222034" />
<rect x="130" y="15" width="5" height="5" fill="#222034" />
<rect x="135" y="15" width="5" height="5" fill="#222034" />
<rect x="140" y="15" width="5" height="5" fill="#222034" />
<rect x="145" y="15" width="5" height="5" fill="#222034" />
<rect x="150" y="15" width="5" height="5" fill="#FFFFFF" />
<rect x="155" y="15" width="5" height="5" fill="#222034" />
<rect x="160" y="15" width="5" height="5" fill="#FFFFFF" />
<rect x="165" y="15" width="5" height="5" fill="#222034" />
<rect x="170" y="15" width="5" height="5" fill="#222034" />
<rect x="175" y="15" width="5" height="5" fill="#222034" />
<rect x="180" y="15" width="5" height="5" fill="#222034" />
<rect x="185" y="15" width="5" height="5" fill="#222034" />
<rect x="190" y="15" width="5" height="5" fill="#FFFFFF" />
<rect x="195" y="15" width="5" height="5" fill="#222034" />
<rect x="200" y="15" width="5" height="5" fill="#222034" />
<rect x="205" y="15" width="5" height="5" fill="#222034" />
<rect x="210" y="15" width="5" height="5" fill="#FFFFFF" />
<rect x="215" y="15" width="5" height="5" fill="#222034" />
<rect x="220" y="15" width="5" height="5" fill="#FFFFFF" />
<rect x="225" y="15" width="5" height="5" fill="#222034" />
<rect x="230" y="15" width="5" height="5" fill="#222034" />
<rect x="235" y="15" width="5" height="5" fill="#222034" />
<rect x="240" y="15" width="5" height="5" fill="#222034" />
<rect x="245" y="15" width="5" height="5" fill="#FFFFFF" />
<rect x="250" y="15" width="5" height="5" fill="#222034" />
<rect x="255" y="15" width="5" height="5" fill="#222034" />
<rect x="260" y="15" width="5" height="5" fill="#222034" />
<rect x="265" y="15" width="5" height="5" fill="#222034" />
<rect x="270" y="15" width="5" height="5" fill="#222034" />
<rect x="275" y="15" width="5" height="5" fill="#222034" />
<rect x="280" y="15" width="5" height="5" fill="#222034" />
<rect x="285" y="15" width="5" height="5" fill="#222034" />
<rect x="290" y="15" width="5" height="5" fill="#FFFFFF" />
<rect x="295" y="15" width="5" height="5" fill="#222034" />
<rect x="300" y="15" width="5" height="5" fill="#FFFFFF" />
<rect x="305" y="15" width="5" height="5" fill="#222034" />
<rect x="310" y="15" width="5" height="5" fill="#222034" />
<rect x="315" y="15" width="5" height="5" fill="#222034" />
<rect x="320" y="15" width="5" height="5" fill="#FFFFFF" />
<rect x="325" y="15" width="5" height="5" fill="#222034" />
<rect x="330" y="15" width="5" height="5" fill="#222034" />
<rect x="335" y="15" width="5" height="5" fill="#FFFFFF" />
<rect x="340" y="15" width="5" height="5" fill="#222034" />
<rect x="345" y="15" width="5" height="5" fill="#FFFFFF" />
<rect x="350" y="15" width="5" height="5" fill="#222034" />
<rect x="355" y="15" width="5" height="5" fill="#222034" />
<rect x="360" y="15" width="5" height="5" fill="#FFFFFF" />
<rect x="365" y="15" width="5" height="5" fill="#222034" />
<rect x="370" y="15" width="5" height="5" fill="#222034" />
<rect x="375" y="15" width="5" height="5" fill="#222034" />
<rect x="380" y="15" width="5" height="5" fill="#FFFFFF" />
<rect x="385" y="15" width="5" height="5" fill="#222034" />
<rect x="390" y="15" width="5" height="5" fill="#222034" />
<rect x="395" y="15" width="5" height="5" fill="#222034" />
<rect x="400" y="15" width="5" height="5" fill="#FFFFFF" />
<rect x="405" y="15" width="5" height="5" fill="#222034" />
<rect x="410" y="15" width="5" height="5" fill="#222034" />
<rect x="415" y="15" width="5" height="5" fill="#222034" />
<rect x="420" y="15" width="5" height="5" fill="#FFFFFF" />
<rect x="425" y="15" width="5" height="5" fill="#222034" />
<rect x="430" y="15" width="5" height="5" fill="#222034" />
<rect x="435" y="15" width="5" height="5" fill="#222034" />
<rect x="440" y="15" width="5" height="5" fill="#FFFFFF" />
<rect x="445" y="15" width="5" height="5" fill="#222034" />
<rect x="450" y="15" width="5" height="5" fill="#FFFFFF" />
<rect x="455" y="15" width="5" height="5" fill="#222034" />
<rect x="460" y="15" width="5" height="5" fill="#222034" />
<rect x="465" y="15" width="5" height="5" fill="#222034" />
<rect x="470" y="15" width="5" height="5" fill="#222034" />
<rect x="475" y="15" width="5" height="5" fill="#222034" />
<rect x="480" y="15" width="5" height="5" fill="#FFFFFF" />
<rect x="485" y="15" width="5" height="5" fill="#222034" />
<rect x="490" y="15" width="5" height="5" fill="#222034" />
<rect x="495" y="15" width="5" height="5" fill="#222034" />
<rect x="500" y="15" width="5" height="5" fill="#FFFFFF" />
<rect x="505" y="15" width="5" height="5" fill="#222034" />
<rect x="510" y="15" width="5" height="5" fill="#222034" />
<rect x="515" y="15" width="5" height="5" fill="#222034" />
<rect x="520" y="15" width="5" height="5" fill="#222034" />
<rect x="525" y="15" width="5" height="5" fill="#222034" />
<rect x="530" y="15" width="5" height="5" fill="#FFFFFF" />
<rect x="0" y="20" width="5" height="5" fill="#FFFFFF" />
<rect x="5" y="20" width="5" height="5" fill="#222034" />
<rect x="10" y="20" width="5" height="5" fill="#222034" />
<rect x="15" y="20" width="5" height="5" fill="#222034" />
<rect x="20" y="20" width="5" height="5" fill="#222034" />
<rect x="25" y="20" width="5" height="5" fill="#222034" />
<rect x="30" y="20" width="5" height="5" fill="#FFFFFF" />
<rect x="35" y="20" width="5" height="5" fill="#FFFFFF" />
<rect x="40" y="20" width="5" height="5" fill="#FFFFFF" />
<rect x="45" y="20" width="5" height="5" fill="#FFFFFF" />
<rect x="50" y="20" width="5" height="5" fill="#222034" />
<rect x="55" y="20" width="5" height="5" fill="#FFFFFF" />
<rect x="60" y="20" width="5" height="5" fill="#222034" />
<rect x="65" y="20" width="5" height="5" fill="#222034" />
<rect x="70" y="20" width="5" height="5" fill="#222034" />
<rect x="75" y="20" width="5" height="5" fill="#FFFFFF" />
<rect x="80" y="20" width="5" height="5" fill="#222034" />
<rect x="85" y="20" width="5" height="5" fill="#222034" />
<rect x="90" y="20" width="5" height="5" fill="#222034" />
<rect x="95" y="20" width="5" height="5" fill="#FFFFFF" />
<rect x="100" y="20" width="5" height="5" fill="#222034" />
<rect x="105" y="20" width="5" height="5" fill="#222034" />
<rect x="110" y="20" width="5" height="5" fill="#222034" />
<rect x="115" y="20" width="5" height="5" fill="#222034" />
<rect x="120" y="20" width="5" height="5" fill="#222034" />
<rect x="125" y="20" width="5" height="5" fill="#222034" />
<rect x="130" y="20" width="5" height="5" fill="#FFFFFF" />
<rect x="135" y="20" width="5" height="5" fill="#FFFFFF" />
<rect x="140" y="20" width="5" height="5" fill="#FFFFFF" />
<rect x="145" y="20" width="5" height="5" fill="#FFFFFF" />
<rect x="150" y="20" width="5" height="5" fill="#222034" />
<rect x="155" y="20" width="5" height="5" fill="#222034" />
<rect x="160" y="20" width="5" height="5" fill="#FFFFFF" />
<rect x="165" y="20" width="5" height="5" fill="#222034" />
<rect x="170" y="20" width="5" height="5" fill="#222034" />
<rect x="175" y="20" width="5" height="5" fill="#222034" />
<rect x="180" y="20" width="5" height="5" fill="#222034" />
<rect x="185" y="20" width="5" height="5" fill="#222034" />
<rect x="190" y="20" width="5" height="5" fill="#FFFFFF" />
<rect x="195" y="20" width="5" height="5" fill="#222034" />
<rect x="200" y="20" width="5" height="5" fill="#222034" />
<rect x="205" y="20" width="5" height="5" fill="#222034" />
<rect x="210" y="20" width="5" height="5" fill="#FFFFFF" />
<rect x="215" y="20" width="5" height="5" fill="#222034" />
<rect x="220" y="20" width="5" height="5" fill="#222034" />
<rect x="225" y="20" width="5" height="5" fill="#FFFFFF" />
<rect x="230" y="20" width="5" height="5" fill="#FFFFFF" />
<rect x="235" y="20" width="5" height="5" fill="#FFFFFF" />
<rect x="240" y="20" width="5" height="5" fill="#222034" />
<rect x="245" y="20" width="5" height="5" fill="#FFFFFF" />
<rect x="250" y="20" width="5" height="5" fill="#FFFFFF" />
<rect x="255" y="20" width="5" height="5" fill="#FFFFFF" />
<rect x="260" y="20" width="5" height="5" fill="#FFFFFF" />
<rect x="265" y="20" width="5" height="5" fill="#FFFFFF" />
<rect x="270" y="20" width="5" height="5" fill="#222034" />
<rect x="275" y="20" width="5" height="5" fill="#222034" />
<rect x="280" y="20" width="5" height="5" fill="#222034" />
<rect x="285" y="20" width="5" height="5" fill="#222034" />
<rect x="290" y="20" width="5" height="5" fill="#FFFFFF" />
<rect x="295" y="20" width="5" height="5" fill="#222034" />
<rect x="300" y="20" width="5" height="5" fill="#FFFFFF" />
<rect x="305" y="20" width="5" height="5" fill="#222034" />
<rect x="310" y="20" width="5" height="5" fill="#222034" />
<rect x="315" y="20" width="5" height="5" fill="#222034" />
<rect x="320" y="20" width="5" height="5" fill="#FFFFFF" />
<rect x="325" y="20" width="5" height="5" fill="#222034" />
<rect x="330" y="20" width="5" height="5" fill="#222034" />
<rect x="335" y="20" width="5" height="5" fill="#222034" />
<rect x="340" y="20" width="5" height="5" fill="#FFFFFF" />
<rect x="345" y="20" width="5" height="5" fill="#222034" />
<rect x="350" y="20" width="5" height="5" fill="#222034" />
<rect x="355" y="20" width="5" height="5" fill="#222034" />
<rect x="360" y="20" width="5" height="5" fill="#FFFFFF" />
<rect x="365" y="20" width="5" height="5" fill="#222034" />
<rect x="370" y="20" width="5" height="5" fill="#222034" />
<rect x="375" y="20" width="5" height="5" fill="#222034" />
<rect x="380" y="20" width="5" height="5" fill="#FFFFFF" />
<rect x="385" y="20" width="5" height="5" fill="#222034" />
<rect x="390" y="20" width="5" height="5" fill="#222034" />
<rect x="395" y="20" width="5" height="5" fill="#222034" />
<rect x="400" y="20" width="5" height="5" fill="#FFFFFF" />
<rect x="405" y="20" width="5" height="5" fill="#222034" />
<rect x="410" y="20" width="5" height="5" fill="#222034" />
<rect x="415" y="20" width="5" height="5" fill="#222034" />
<rect x="420" y="20" width="5" height="5" fill="#FFFFFF" />
<rect x="425" y="20" width="5" height="5" fill="#FFFFFF" />
<rect x="430" y="20" width="5" height="5" fill="#FFFFFF" />
<rect x="435" y="20" width="5" height="5" fill="#FFFFFF" />
<rect x="440" y="20" width="5" height="5" fill="#222034" />
<rect x="445" y="20" width="5" height="5" fill="#222034" />
<rect x="450" y="20" width="5" height="5" fill="#FFFFFF" />
<rect x="455" y="20" width="5" height="5" fill="#FFFFFF" />
<rect x="460" y="20" width="5" height="5" fill="#FFFFFF" />
<rect x="465" y="20" width="5" height="5" fill="#FFFFFF" />
<rect x="470" y="20" width="5" height="5" fill="#FFFFFF" />
<rect x="475" y="20" width="5" height="5" fill="#222034" />
<rect x="480" y="20" width="5" height="5" fill="#FFFFFF" />
<rect x="485" y="20" width="5" height="5" fill="#222034" />
<rect x="490" y="20" width="5" height="5" fill="#222034" />
<rect x="495" y="20" width="5" height="5" fill="#222034" />
<rect x="500" y="20" width="5" height="5" fill="#FFFFFF" />
<rect x="505" y="20" width="5" height="5" fill="#222034" />
<rect x="510" y="20" width="5" height="5" fill="#FFFFFF" />
<rect x="515" y="20" width="5" height="5" fill="#FFFFFF" />
<rect x="520" y="20" width="5" height="5" fill="#FFFFFF" />
<rect x="525" y="20" width="5" height="5" fill="#FFFFFF" />
<rect x="530" y="20" width="5" height="5" fill="#222034" />
</svg>