<?xml version="1.0" encoding="UTF-8" ?>
<svg version="1.1" width="95" height="25" xmlns="http://www.w3.org/2000/svg" shape-rendering="crispEdges">
<rect x="0" y="0" width="5" height="5" fill="#FFFFFF" />
<rect x="5" y="0" width="5" height="5" fill="#FFFFFF" />
<rect x="10" y="0" width="5" height="5" fill="#FFFFFF" />
<rect x="15" y="0" width="5" height="5" fill="#FFFFFF" />
<rect x="20" y="0" width="5" height="5" fill="#FFFFFF" />
<rect x="25" y="0" width="5" height="5" fill="#000000" />
<rect x="30" y="0" width="5" height="5" fill="#FFFFFF" />
<rect x="35" y="0" width="5" height="5" fill="#000000" />
<rect x="40" y="0" width="5" height="5" fill="#000000" />
<rect x="45" y="0" width="5" height="5" fill="#000000" />
<rect x="50" y="0" width="5" height="5" fill="#FFFFFF" />
<rect x="55" y="0" width="5" height="5" fill="#000000" />
<rect x="60" y="0" width="5" height="5" fill="#FFFFFF" />
<rect x="65" y="0" width="5" height="5" fill="#000000" />
<rect x="70" y="0" width="5" height="5" fill="#FFFFFF" />
<rect x="75" y="0" width="5" height="5" fill="#FFFFFF" />
<rect x="80" y="0" width="5" height="5" fill="#FFFFFF" />
<rect x="85" y="0" width="5" height="5" fill="#FFFFFF" />
<rect x="90" y="0" width="5" height="5" fill="#FFFFFF" />
<rect x="0" y="5" width="5" height="5" fill="#FFFFFF" />
<rect x="5" y="5" width="5" height="5" fill="#000000" />
<rect x="10" y="5" width="5" height="5" fill="#000000" />
<rect x="15" y="5" width="5" height="5" fill="#000000" />
<rect x="20" y="5" width="5" height="5" fill="#000000" />
<rect x="25" y="5" width="5" height="5" fill="#000000" />
<rect x="30" y="5" width="5" height="5" fill="#000000" />
<rect x="35" y="5" width="5" height="5" fill="#FFFFFF" />
<rect x="40" y="5" width="5" height="5" fill="#000000" />
<rect x="45" y="5" width="5" height="5" fill="#FFFFFF" />
<rect x="50" y="5" width="5" height="5" fill="#000000" />
<rect x="55" y="5" width="5" height="5" fill="#000000" />
<rect x="60" y="5" width="5" height="5" fill="#FFFFFF" />
<rect x="65" y="5" width="5" height="5" fill="#000000" />
<rect x="70" y="5" width="5" height="5" fill="#000000" />
<rect x="75" y="5" width="5" height="5" fill="#000000" />
<rect x="80" y="5" width="5" height="5" fill="#FFFFFF" />
<rect x="85" y="5" width="5" height="5" fill="#000000" />
<rect x="90" y="5" width="5" height="5" fill="#000000" />
<rect x="0" y="10" width="5" height="5" fill="#FFFFFF" />
<rect x="5" y="10" width="5" height="5" fill="#FFFFFF" />
<rect x="10" y="10" width="5" height="5" fill="#FFFFFF" />
<rect x="15" y="10" width="5" height="5" fill="#FFFFFF" />
<rect x="20" y="10" width="5" height="5" fill="#000000" />
<rect x="25" y="10" width="5" height="5" fill="#000000" />
<rect x="30" y="10" width="5" height="5" fill="#000000" />
<rect x="35" y="10" width="5" height="5" fill="#000000" />
<rect x="40" y="10" width="5" height="5" fill="#FFFFFF" />
<rect x="45" y="10" width="5" height="5" fill="#000000" />
<rect x="50" y="10" width="5" height="5" fill="#000000" />
<rect x="55" y="10" width="5" height="5" fill="#000000" />
<rect x="60" y="10" width="5" height="5" fill="#FFFFFF" />
<rect x="65" y="10" width="5" height="5" fill="#000000" />
<rect x="70" y="10" width="5" height="5" fill="#000000" />
<rect x="75" y="10" width="5" height="5" fill="#000000" />
<rect x="80" y="10" width="5" height="5" fill="#FFFFFF" />
<rect x="85" y="10" width="5" height="5" fill="#000000" />
<rect x="90" y="10" width="5" height="5" fill="#000000" />
<rect x="0" y="15" width="5" height="5" fill="#FFFFFF" />
<rect x="5" y="15" width="5" height="5" fill="#000000" />
<rect x="10" y="15" width="5" height="5" fill="#000000" />
<rect x="15" y="15" width="5" height="5" fill="#000000" />
<rect x="20" y="15" width="5" height="5" fill="#000000" />
<rect x="25" y="15" width="5" height="5" fill="#000000" />
<rect x="30" y="15" width="5" height="5" fill="#000000" />
<rect x="35" y="15" width="5" height="5" fill="#FFFFFF" />
<rect x="40" y="15" width="5" height="5" fill="#000000" />
<rect x="45" y="15" width="5" height="5" fill="#FFFFFF" />
<rect x="50" y="15" width="5" height="5" fill="#000000" />
<rect x="55" y="15" width="5" height="5" fill="#000000" />
<rect x="60" y="15" width="5" height="5" fill="#FFFFFF" />
<rect x="65" y="15" width="5" height="5" fill="#000000" />
<rect x="70" y="15" width="5" height="5" fill="#000000" />
<rect x="75" y="15" width="5" height="5" fill="#000000" />
<rect x="80" y="15" width="5" height="5" fill="#FFFFFF" />
<rect x="85" y="15" width="5" height="5" fill="#000000" />
<rect x="90" y="15" width="5" height="5" fill="#000000" />
<rect x="0" y="20" width="5" height="5" fill="#FFFFFF" />
<rect x="5" y="20" width="5" height="5" fill="#FFFFFF" />
<rect x="10" y="20" width="5" height="5" fill="#FFFFFF" />
<rect x="15" y="20" width="5" height="5" fill="#FFFFFF" />
<rect x="20" y="20" width="5" height="5" fill="#FFFFFF" />
<rect x="25" y="20" width="5" height="5" fill="#000000" />
<rect x="30" y="20" width="5" height="5" fill="#FFFFFF" />
<rect x="35" y="20" width="5" height="5" fill="#000000" />
<rect x="40" y="20" width="5" height="5" fill="#000000" />
<rect x="45" y="20" width="5" height="5" fill="#000000" />
<rect x="50" y="20" width="5" height="5" fill="#FFFFFF" />
<rect x="55" y="20" width="5" height="5" fill="#000000" />
<rect x="60" y="20" width="5" height="5" fill="#FFFFFF" />
<rect x="65" y="20" width="5" height="5" fill="#000000" />
<rect x="70" y="20" width="5" height="5" fill="#000000" />
<rect x="75" y="20" width="5" height="5" fill="#000000" />
<rect x="80" y="20" width="5" height="5" fill="#FFFFFF" />
<rect x="85" y="20" width="5" height="5" fill="#000000" />
<rect x="90" y="20" width="5" height="5" fill="#000000" />
</svg>